<svg xmlns="http://www.w3.org/2000/svg" width="24" height="24" viewBox="0 0 24 24">
  <path d="M18.568,10.646,19.632,9.8a3.847,3.847,0,0,0,.146-5.578,3.845,3.845,0,0,0-5.619.194l-.805,1.015-7.239-3.1-2.6,2.6,5.7,5.7L5.407,15.307,3.515,13.414,2.1,14.828l2.037,2.037-.145.179A2,2,0,0,0,4.145,19.7l.154.154A2,2,0,0,0,6.966,20l.168-.138L9.172,21.9l1.414-1.414L8.693,18.593l4.678-3.808,5.7,5.7,2.6-2.6Zm-5.06,1.448L5.713,18.441,5.551,18.3l6.355-7.8L6.343,4.929,6.571,4.7l7.4,3.171,1.715-2.165A1.826,1.826,0,0,1,17.01,5.1a1.756,1.756,0,0,1,1.354.54,1.853,1.853,0,0,1-.022,2.638l-2.213,1.755,3.171,7.4-.229.228Z"/>
</svg>
