<?xml version="1.0" encoding="utf-8"?>
<!-- Generator: Adobe Illustrator 24.1.3, SVG Export Plug-In . SVG Version: 6.00 Build 0)  -->
<svg version="1.1" id="Design_here" xmlns="http://www.w3.org/2000/svg" xmlns:xlink="http://www.w3.org/1999/xlink" x="0px"
	 y="0px" viewBox="0 0 24 24" style="enable-background:new 0 0 24 24;" xml:space="preserve">
<g>
	<path d="M21,13.25c0-4.962-4.038-9-9-9c-1.801,0-3.476,0.537-4.884,1.452L6.393,4.979c0.614-0.417,1.271-0.775,1.97-1.048
		L7.636,2.068C6.677,2.443,5.778,2.941,4.954,3.54L3.707,2.293L2.293,3.707l1.145,1.145c-0.775,0.79-1.448,1.685-1.984,2.67
		L3.21,8.478c0.444-0.816,1-1.558,1.641-2.214l0.711,0.711C3.979,8.598,3,10.81,3,13.25c0,4.962,4.038,9,9,9
		c2.44,0,4.652-0.979,6.275-2.561l2.018,2.018l1.414-1.414l-2.159-2.159C20.463,16.726,21,15.051,21,13.25z M12,6.25
		c3.86,0,7,3.14,7,7c0,1.247-0.331,2.416-0.905,3.431L8.569,7.155C9.584,6.581,10.753,6.25,12,6.25z M12,20.25c-3.86,0-7-3.14-7-7
		c0-1.888,0.755-3.601,1.974-4.862l9.887,9.887C15.601,19.495,13.888,20.25,12,20.25z"/>
	<path d="M20.79,8.478l1.757-0.956c-1.354-2.488-3.55-4.425-6.183-5.454l-0.728,1.863C17.831,4.789,19.661,6.403,20.79,8.478z"/>
</g>
</svg>
