<?xml version="1.0" encoding="utf-8"?>
<!-- Generator: Adobe Illustrator 24.1.3, SVG Export Plug-In . SVG Version: 6.00 Build 0)  -->
<svg version="1.1" id="Design_here" xmlns="http://www.w3.org/2000/svg" xmlns:xlink="http://www.w3.org/1999/xlink" x="0px"
	 y="0px" viewBox="0 0 24 24" style="enable-background:new 0 0 24 24;" xml:space="preserve">
<g>
	<path d="M12,4.25c-4.963,0-9,4.038-9,9s4.037,9,9,9s9-4.038,9-9S16.963,4.25,12,4.25z M12,20.25c-3.859,0-7-3.14-7-7s3.141-7,7-7
		s7,3.14,7,7S15.859,20.25,12,20.25z"/>
	<path d="M20.791,8.478l1.756-0.956c-1.354-2.489-3.551-4.425-6.183-5.454l-0.729,1.863C17.83,4.789,19.661,6.403,20.791,8.478z"/>
	<path d="M8.364,3.932L7.636,2.068C5.004,3.097,2.808,5.033,1.453,7.522l1.756,0.956C4.339,6.403,6.17,4.789,8.364,3.932z"/>
	<rect x="8" y="12" width="8" height="2"/>
</g>
</svg>
