<?xml version="1.0" encoding="utf-8"?>
<!-- Generator: Adobe Illustrator 24.1.3, SVG Export Plug-In . SVG Version: 6.00 Build 0)  -->
<svg version="1.1" id="Design_here" xmlns="http://www.w3.org/2000/svg" xmlns:xlink="http://www.w3.org/1999/xlink" x="0px"
	 y="0px" viewBox="0 0 24 24" style="enable-background:new 0 0 24 24;" xml:space="preserve">
<g>
	<path d="M12,4.25c-4.962,0-9,4.038-9,9s4.038,9,9,9s9-4.038,9-9S16.962,4.25,12,4.25z M12,20.25c-3.86,0-7-3.14-7-7s3.14-7,7-7
		s7,3.14,7,7S15.86,20.25,12,20.25z"/>
	<path d="M20.79,8.478l1.757-0.956c-1.354-2.488-3.55-4.425-6.183-5.454l-0.728,1.863C17.831,4.789,19.661,6.403,20.79,8.478z"/>
	<path d="M8.364,3.932L7.636,2.068C5.003,3.097,2.807,5.034,1.453,7.522L3.21,8.478C4.339,6.403,6.169,4.789,8.364,3.932z"/>
	<polygon points="13,8.25 11,8.25 11,13.664 14.293,16.957 15.707,15.543 13,12.836 	"/>
</g>
</svg>
