<svg xmlns="http://www.w3.org/2000/svg" width="24" height="24" viewBox="0 0 24 24">
  <g>
    <path d="M21.9,6.343,17.657,2.1a3,3,0,0,0-4.243,0L2.1,13.414a3,3,0,0,0,0,4.243L6.343,21.9a3,3,0,0,0,4.243,0L12,20.485l7.778-7.778L21.9,10.586A3,3,0,0,0,21.9,6.343ZM9.172,20.485a1,1,0,0,1-1.415,0L3.515,16.243a1,1,0,0,1,0-1.415l1.414-1.414,5.657,5.657ZM12,17.657,6.343,12l4.95-4.95,5.657,5.657Zm8.485-8.485-2.121,2.121L12.707,5.636l2.121-2.121a1,1,0,0,1,1.415,0l4.242,4.242A1,1,0,0,1,20.485,9.172Z"/>
    <rect x="10.293" y="8.879" width="2" height="2" transform="translate(-3.678 10.876) rotate(-44.99)"/>
    <rect x="13.121" y="11.707" width="2" height="2" transform="translate(-4.849 13.707) rotate(-45)"/>
    <rect x="8.172" y="11" width="2" height="2" transform="translate(-5.799 10) rotate(-45)"/>
    <rect x="11" y="13.828" width="2" height="2" transform="translate(-6.97 12.825) rotate(-44.99)"/>
  </g>
</svg>
