<svg xmlns="http://www.w3.org/2000/svg" width="24" height="24" viewBox="0 0 24 24">
  <path d="M12,2A10,10,0,1,0,22,12,10.011,10.011,0,0,0,12,2Zm6.5,14.651A8.015,8.015,0,0,1,17.07,13h2.861A7.952,7.952,0,0,1,18.5,16.651ZM5.5,7.349A8.015,8.015,0,0,1,6.93,11H4.069A7.952,7.952,0,0,1,5.5,7.349ZM13,11V4.069a7.96,7.96,0,0,1,4.121,1.793A10.016,10.016,0,0,0,15.053,11Zm-2,0H8.947A10.016,10.016,0,0,0,6.879,5.862,7.96,7.96,0,0,1,11,4.069Zm0,2v6.931a7.977,7.977,0,0,1-4.118-1.789A9.97,9.97,0,0,0,8.947,13Zm2,0h2.053a10.016,10.016,0,0,0,2.068,5.138A7.96,7.96,0,0,1,13,19.931Zm4.07-2A8.015,8.015,0,0,1,18.5,7.349,7.952,7.952,0,0,1,19.931,11Zm-13,2H6.93A7.977,7.977,0,0,1,5.5,16.651,7.952,7.952,0,0,1,4.069,13Z"/>
</svg>
