<svg xmlns="http://www.w3.org/2000/svg" width="24" height="24" viewBox="0 0 24 24">
  <path d="M20.772,12.248,20.153,10H21V8H19.6l-.276-1V5H15V7h2.323a2.049,2.049,0,0,0,.077.541L17.527,8h-.062L16.8,9H10.079L9.2,8H10V6H5V8H6.546l2.069,2.365L7.53,12.173A3.448,3.448,0,0,0,6.5,12a3.5,3.5,0,1,0,3.449,4h4.586l3.677-5.515.448,1.628a3.5,3.5,0,1,0,2.112.135ZM15.465,11l-1.572,2.358L11.829,11ZM11.8,14H9.649a3.463,3.463,0,0,0-.457-.709L10,11.946ZM6.5,17A1.5,1.5,0,1,1,8,15.5,1.5,1.5,0,0,1,6.5,17Zm13,0A1.5,1.5,0,1,1,21,15.5,1.5,1.5,0,0,1,19.5,17Z"/>
</svg>
