<svg xmlns="http://www.w3.org/2000/svg" width="24" height="24" viewBox="0 0 24 24">
  <g>
    <polygon points="5 9 7 9 7 7 9 7 9 5 7 5 7 3 5 3 5 5 3 5 3 7 5 7 5 9"/>
    <rect x="15" y="5" width="6" height="2"/>
    <polygon points="7.293 15.293 6 16.586 4.707 15.293 3.293 16.707 4.586 18 3.293 19.293 4.707 20.707 6 19.414 7.293 20.707 8.707 19.293 7.414 18 8.707 16.707 7.293 15.293"/>
    <rect x="17" y="15" width="2" height="2"/>
    <rect x="17" y="18" width="2" height="2"/>
    <polygon points="13 3 11 3 11 11 3 11 3 13 11 13 11 21 13 21 13 13 21 13 21 11 13 11 13 3"/>
  </g>
</svg>
