<?xml version="1.0" encoding="utf-8"?>
<!-- Generator: Adobe Illustrator 24.1.3, SVG Export Plug-In . SVG Version: 6.00 Build 0)  -->
<svg version="1.1" id="Design_here" xmlns="http://www.w3.org/2000/svg" xmlns:xlink="http://www.w3.org/1999/xlink" x="0px"
	 y="0px" viewBox="0 0 24 24" style="enable-background:new 0 0 24 24;" xml:space="preserve">
<g>
	<polygon points="19,15 7.586,15 5,17.586 5,5 15,5 15,3 3,3 3,22.414 8.414,17 21,17 21,10 19,10 	"/>
	<rect x="8" y="7" width="8" height="2"/>
	<rect x="8" y="11" width="6" height="2"/>
	<path d="M20,2c-1.654,0-3,1.346-3,3s1.346,3,3,3s3-1.346,3-3S21.654,2,20,2z M20,6c-0.551,0-1-0.448-1-1s0.449-1,1-1s1,0.448,1,1
		S20.551,6,20,6z"/>
</g>
</svg>
