<svg xmlns="http://www.w3.org/2000/svg" width="24" height="24" viewBox="0 0 24 24">
  <path d="M19.786,11.861a3.977,3.977,0,0,0-1.049-6.449A5.025,5.025,0,0,0,14,2,4.95,4.95,0,0,0,9.952,4.089,5.282,5.282,0,0,0,9,4a6.006,6.006,0,0,0-6,6,5.731,5.731,0,0,0,.774,2.694A3.99,3.99,0,0,0,2,16a5.006,5.006,0,0,0,5,5H17a4.992,4.992,0,0,0,2.786-9.139ZM9,6a3.945,3.945,0,0,1,1.141.19l.808.243.375-.756A2.981,2.981,0,0,1,14,4a3.012,3.012,0,0,1,2.929,2.365l.122.567.552.175a1.987,1.987,0,0,1,.52,3.546,6.959,6.959,0,0,0-12.666.935A3.628,3.628,0,0,1,5,10,4,4,0,0,1,9,6Zm8,13H7a3,3,0,0,1-3-3A1.993,1.993,0,0,1,5.906,14l1.026.042.143-.864a4.993,4.993,0,0,1,9.654-.782l.192.563.079.013V13c.041,0,.08-.011.12-.012l.388.066A2.994,2.994,0,0,1,17,19Z"/>
</svg>
