<svg xmlns="http://www.w3.org/2000/svg" width="24" height="24" viewBox="0 0 24 24">
  <g>
    <path d="M21,9.5a.5.5,0,0,0,.5-.5V6a.5.5,0,0,0-.5-.5H3a.5.5,0,0,0-.5.5V9a.5.5,0,0,0,.5.5,2.5,2.5,0,0,1,0,5,.5.5,0,0,0-.5.5v3a.5.5,0,0,0,.5.5H21a.5.5,0,0,0,.5-.5V15a.5.5,0,0,0-.5-.5,2.5,2.5,0,0,1,0-5Zm-.5,5.964V17.5H3.5V15.464a3.5,3.5,0,0,0,0-6.928V6.5h17V8.536a3.5,3.5,0,0,0,0,6.928Z"/>
    <path d="M14.277,8.584a.5.5,0,0,0-.693.139l-4,6a.5.5,0,0,0,.139.693.5.5,0,0,0,.693-.139l4-6A.5.5,0,0,0,14.277,8.584Z"/>
    <path d="M11.5,9.5a2,2,0,1,0-2,2A2,2,0,0,0,11.5,9.5Zm-2,1a1,1,0,1,1,1-1A1,1,0,0,1,9.5,10.5Z"/>
    <path d="M14.5,12.5a2,2,0,1,0,2,2A2,2,0,0,0,14.5,12.5Zm0,3a1,1,0,1,1,1-1A1,1,0,0,1,14.5,15.5Z"/>
  </g>
</svg>
