<svg xmlns="http://www.w3.org/2000/svg" width="24" height="24" viewBox="0 0 24 24">
  <g>
    <path d="M20,5.5H4A1.5,1.5,0,0,0,2.5,7V17A1.5,1.5,0,0,0,4,18.5H20A1.5,1.5,0,0,0,21.5,17V7A1.5,1.5,0,0,0,20,5.5ZM20.5,17a.5.5,0,0,1-.5.5H4a.5.5,0,0,1-.5-.5V7A.5.5,0,0,1,4,6.5H20a.5.5,0,0,1,.5.5Z"/>
    <path d="M17,11.5a2.475,2.475,0,0,0-1.333.393,2.476,2.476,0,0,0-1.334-.393,2.5,2.5,0,1,0,0,5,2.476,2.476,0,0,0,1.334-.393A2.475,2.475,0,0,0,17,16.5a2.5,2.5,0,0,0,0-5ZM15.5,14a1.483,1.483,0,0,1,.167-.673,1.447,1.447,0,0,1,0,1.346A1.483,1.483,0,0,1,15.5,14Zm-2.667,0a1.5,1.5,0,0,1,2.086-1.381,2.485,2.485,0,0,0,0,2.762A1.5,1.5,0,0,1,12.833,14ZM17,15.5a1.5,1.5,0,0,1-.585-.119,2.49,2.49,0,0,0,0-2.762A1.5,1.5,0,1,1,17,15.5Z"/>
    <path d="M9,7.5H5a.5.5,0,0,0-.5.5v3a.5.5,0,0,0,.5.5H9a.5.5,0,0,0,.5-.5V8A.5.5,0,0,0,9,7.5Zm-.5,3h-3v-2h3Z"/>
    <path d="M9,15.5H5a.5.5,0,0,0,0,1H9a.5.5,0,0,0,0-1Z"/>
    <path d="M5,14.5H7a.5.5,0,0,0,0-1H5a.5.5,0,0,0,0,1Z"/>
  </g>
</svg>
