<svg xmlns="http://www.w3.org/2000/svg" width="24" height="24" viewBox="0 0 24 24">
  <g>
    <path d="M20,5.5H4A1.5,1.5,0,0,0,2.5,7V17A1.5,1.5,0,0,0,4,18.5H20A1.5,1.5,0,0,0,21.5,17V7A1.5,1.5,0,0,0,20,5.5ZM3.5,9.5h17v1H3.5Zm.5-3H20a.5.5,0,0,1,.5.5V8.5H3.5V7A.5.5,0,0,1,4,6.5Zm16,11H4a.5.5,0,0,1-.5-.5V11.5h17V17A.5.5,0,0,1,20,17.5Z"/>
    <path d="M5,14.5H7a.5.5,0,0,0,0-1H5a.5.5,0,0,0,0,1Z"/>
    <path d="M9,14.5h2a.5.5,0,0,0,0-1H9a.5.5,0,0,0,0,1Z"/>
    <path d="M12,15.5H5a.5.5,0,0,0,0,1h7a.5.5,0,0,0,0-1Z"/>
  </g>
</svg>
