<svg xmlns="http://www.w3.org/2000/svg" width="24" height="24" viewBox="0 0 24 24">
  <path d="M20.772,13.248,20.153,11H21V9H19.6l-.276-1V6H16V8h1.323a2.049,2.049,0,0,0,.077.541l.322,1.168L14.667,12H13a2,2,0,0,0-2-2H10V4H2v8H5v1.351A3.492,3.492,0,1,0,9.649,18h6.7a3.493,3.493,0,1,0,4.421-4.752ZM4,10V6H8v4Zm2.5,8A1.5,1.5,0,1,1,8,16.5,1.5,1.5,0,0,1,6.5,18Zm9.551-2h-6.1A3.485,3.485,0,0,0,7,13.051V12h4a2,2,0,0,0,2,2h2.333l2.96-2.22.367,1.333A3.491,3.491,0,0,0,16.051,16ZM19.5,18A1.5,1.5,0,1,1,21,16.5,1.5,1.5,0,0,1,19.5,18Z"/>
</svg>
