<svg xmlns="http://www.w3.org/2000/svg" width="24" height="24" viewBox="0 0 24 24">
  <g>
    <path d="M16.639,7.361a.5.5,0,0,0-.707,0L7.361,15.932a.5.5,0,0,0,0,.707.5.5,0,0,0,.707,0l8.571-8.571A.5.5,0,0,0,16.639,7.361Z"/>
    <path d="M11.071,8.786a2.286,2.286,0,1,0-2.285,2.285A2.288,2.288,0,0,0,11.071,8.786Zm-3.571,0a1.286,1.286,0,1,1,1.286,1.285A1.288,1.288,0,0,1,7.5,8.786Z"/>
    <path d="M15.214,12.929A2.286,2.286,0,1,0,17.5,15.214,2.288,2.288,0,0,0,15.214,12.929Zm0,3.571A1.286,1.286,0,1,1,16.5,15.214,1.287,1.287,0,0,1,15.214,16.5Z"/>
    <path d="M21.525,10.093,20.5,9.222a1.5,1.5,0,0,1-.524-1.266l.11-1.343a2.5,2.5,0,0,0-2.7-2.7l-1.343.11A1.5,1.5,0,0,1,14.778,3.5l-.871-1.027h0a2.582,2.582,0,0,0-3.814,0L9.222,3.5a1.512,1.512,0,0,1-1.266.524l-1.343-.11a2.5,2.5,0,0,0-2.7,2.7l.11,1.343A1.5,1.5,0,0,1,3.5,9.222l-1.028.871a2.5,2.5,0,0,0,0,3.814l1.027.871a1.5,1.5,0,0,1,.524,1.266l-.11,1.343a2.5,2.5,0,0,0,2.7,2.7l1.343-.11a1.5,1.5,0,0,1,1.266.524l.871,1.028a2.5,2.5,0,0,0,3.814,0l.871-1.027a1.489,1.489,0,0,1,1.266-.524l1.343.11a2.5,2.5,0,0,0,2.7-2.7l-.11-1.343a1.5,1.5,0,0,1,.524-1.266l1.028-.871a2.5,2.5,0,0,0,0-3.814Zm-.646,3.051-1.027.872a2.5,2.5,0,0,0-.875,2.11l.11,1.343a1.5,1.5,0,0,1-1.618,1.618l-1.343-.11a2.519,2.519,0,0,0-2.11.875l-.872,1.026a1.548,1.548,0,0,1-2.288,0l-.872-1.027a2.5,2.5,0,0,0-1.907-.884c-.068,0-.136,0-.2.009l-1.343.11a1.5,1.5,0,0,1-1.618-1.618l.11-1.343a2.5,2.5,0,0,0-.875-2.11l-1.026-.872a1.5,1.5,0,0,1,0-2.288l1.027-.872a2.5,2.5,0,0,0,.875-2.11l-.11-1.343A1.5,1.5,0,0,1,6.531,4.913l1.343.11a2.508,2.508,0,0,0,2.11-.875l.872-1.026a1.548,1.548,0,0,1,2.288,0l.872,1.027a2.516,2.516,0,0,0,2.11.875l1.343-.11a1.5,1.5,0,0,1,1.618,1.618l-.11,1.343a2.5,2.5,0,0,0,.875,2.11l1.026.872a1.5,1.5,0,0,1,0,2.288Z"/>
  </g>
</svg>
