<?xml version="1.0" encoding="utf-8"?>
<!-- Generator: Adobe Illustrator 24.1.3, SVG Export Plug-In . SVG Version: 6.00 Build 0)  -->
<svg version="1.1" id="Design_here" xmlns="http://www.w3.org/2000/svg" xmlns:xlink="http://www.w3.org/1999/xlink" x="0px"
	 y="0px" viewBox="0 0 24 24" style="enable-background:new 0 0 24 24;" xml:space="preserve">
<g>
	<polygon points="20,18 4,18 4,8.869 12,14.202 18.555,9.832 17.445,8.168 12,11.798 4,6.465 4,6 15,6 15,4 2,4 2,20 22,20 22,10 
		20,10 	"/>
	<path d="M20,2c-1.654,0-3,1.346-3,3s1.346,3,3,3s3-1.346,3-3S21.654,2,20,2z M20,6c-0.552,0-1-0.448-1-1s0.448-1,1-1s1,0.448,1,1
		S20.552,6,20,6z"/>
</g>
</svg>
