<?xml version="1.0" encoding="utf-8"?>
<!-- Generator: Adobe Illustrator 24.1.3, SVG Export Plug-In . SVG Version: 6.00 Build 0)  -->
<svg version="1.1" id="Design_here" xmlns="http://www.w3.org/2000/svg" xmlns:xlink="http://www.w3.org/1999/xlink" x="0px"
	 y="0px" viewBox="0 0 24 24" style="enable-background:new 0 0 24 24;" xml:space="preserve">
<g>
	<path d="M2,4v16h11v-2H4V8.869l8,5.334l8-5.334V12h2V4H2z M12,11.798L4,6.465V6h16v0.465L12,11.798z"/>
	<path d="M20,18c0,1.103-0.897,2-2,2s-2-0.897-2-2v-3.5c0-0.275,0.224-0.5,0.5-0.5s0.5,0.225,0.5,0.5V18h2v-3.5
		c0-1.379-1.122-2.5-2.5-2.5S14,13.121,14,14.5V18c0,2.206,1.794,4,4,4s4-1.794,4-4v-3h-2V18z"/>
</g>
</svg>
