<svg xmlns="http://www.w3.org/2000/svg" width="24" height="24" viewBox="0 0 24 24">
  <g>
    <path d="M7,4.184V3H5V4.184A2.982,2.982,0,0,0,5,9.816V21H7V9.816A2.982,2.982,0,0,0,7,4.184ZM6,8A1,1,0,1,1,7,7,1,1,0,0,1,6,8Z"/>
    <path d="M13,14.184V3H11V14.184a2.982,2.982,0,0,0,0,5.632V21h2V19.816a2.982,2.982,0,0,0,0-5.632ZM12,18a1,1,0,1,1,1-1A1,1,0,0,1,12,18Z"/>
    <path d="M19,6.184V3H17V6.184a2.982,2.982,0,0,0,0,5.632V21h2V11.816a2.982,2.982,0,0,0,0-5.632ZM18,10a1,1,0,1,1,1-1A1,1,0,0,1,18,10Z"/>
  </g>
</svg>
