<svg xmlns="http://www.w3.org/2000/svg" width="24" height="24" viewBox="0 0 24 24">
  <g>
    <polygon points="4 4 9 4 9 2 2 2 2 9 4 9 4 4"/>
    <polygon points="4 15 2 15 2 22 9 22 9 20 4 20 4 15"/>
    <polygon points="15 2 15 4 20 4 20 9 22 9 22 2 15 2"/>
    <polygon points="20 20 15 20 15 22 22 22 22 15 20 15 20 20"/>
    <rect x="7" y="8" width="2" height="2"/>
    <rect x="15" y="8" width="2" height="2"/>
    <path d="M11.105,13.553l1.79.894.665-1.33a1.884,1.884,0,0,0-.205-1.967A10.539,10.539,0,0,1,13,8H11c0,.98.069,3.34.725,4.314Z"/>
    <path d="M14.305,15.282A3.469,3.469,0,0,1,12,16a3.461,3.461,0,0,1-2.3-.718l-1.4,1.425A5.311,5.311,0,0,0,12,18a5.311,5.311,0,0,0,3.707-1.293Z"/>
  </g>
</svg>
