<svg xmlns="http://www.w3.org/2000/svg" width="24" height="24" viewBox="0 0 24 24">
  <g>
    <rect x="14" y="15" width="4" height="2"/>
    <rect x="10" y="15" width="3" height="2"/>
    <rect x="5" y="15" width="4" height="2"/>
    <rect x="14" y="3" width="4" height="2"/>
    <rect x="10" y="3" width="3" height="2"/>
    <rect x="3" y="3" width="6" height="2"/>
    <rect x="12" y="11" width="4" height="2"/>
    <rect x="18" y="11" width="3" height="2"/>
    <rect x="4" y="11" width="7" height="2"/>
    <rect x="18" y="19" width="2" height="2"/>
    <rect x="3" y="19" width="2" height="2"/>
    <rect x="13" y="19" width="4" height="2"/>
    <rect x="7" y="19" width="5" height="2"/>
    <rect x="7" y="7" width="2" height="2"/>
    <rect x="19" y="3" width="2" height="2"/>
    <rect x="10" y="7" width="4" height="2"/>
    <rect x="15" y="7" width="5" height="2"/>
  </g>
</svg>
