<svg xmlns="http://www.w3.org/2000/svg" width="24" height="24" viewBox="0 0 24 24">
  <g>
    <path d="M18.417,6.215a6.993,6.993,0,0,0-13.14.85A4.007,4.007,0,0,0,2,11a5.021,5.021,0,0,0,2.5,4.331l1-1.732A3.011,3.011,0,0,1,4,11,1.993,1.993,0,0,1,5.906,8.995l1.026.042.143-.864a4.993,4.993,0,0,1,9.654-.782l.192.563.587.1A2.993,2.993,0,0,1,18.5,13.6l1,1.732a4.994,4.994,0,0,0-1.084-9.116Z"/>
    <rect x="14" y="16" width="4" height="2"/>
    <rect x="10" y="16" width="3" height="2"/>
    <rect x="5" y="16" width="4" height="2"/>
    <rect x="12" y="13" width="4" height="2"/>
    <rect x="8" y="13" width="3" height="2"/>
    <rect x="18" y="19" width="2" height="2"/>
    <rect x="13" y="19" width="4" height="2"/>
    <rect x="7" y="19" width="5" height="2"/>
  </g>
</svg>
