<svg xmlns="http://www.w3.org/2000/svg" width="24" height="24" viewBox="0 0 24 24">
  <g>
    <path d="M18.857,3.485l-1.714,1.03L20,9.277V16H19V14a2,2,0,0,0-2-2H16V3H4V19H3v2H17V19H16V14h1v2a2,2,0,0,0,2,2h1a2,2,0,0,0,2-2V8.723ZM14,19H6V9h8ZM14,7H6V5h8Z"/>
    <path d="M10,18a3.16,3.16,0,0,0,3-3c0-1.276-1.6-3.018-2.293-3.707L10,10.586l-.707.707C8.6,11.982,7,13.724,7,15A3.16,3.16,0,0,0,10,18Zm0-4.52A5.03,5.03,0,0,1,11,15a1.169,1.169,0,0,1-1,1,1.171,1.171,0,0,1-1-.983A4.952,4.952,0,0,1,10,13.48Z"/>
  </g>
</svg>
