<svg xmlns="http://www.w3.org/2000/svg" width="24" height="24" viewBox="0 0 24 24">
  <g>
    <path d="M12,9a3,3,0,1,0,3,3A3,3,0,0,0,12,9Zm0,4a1,1,0,1,1,1-1A1,1,0,0,1,12,13Z"/>
    <path d="M23,15V9H19.416l-.051-.123L21.9,6.343,17.657,2.1,15.123,4.635,15,4.584V1H9V4.584l-.123.051L6.343,2.1,2.1,6.343,4.635,8.877,4.584,9H1v6H4.584l.051.123L2.1,17.657,6.343,21.9l2.534-2.534L9,19.416V23h6V19.416l.123-.051L17.657,21.9,21.9,17.657l-2.534-2.534L19.416,15Zm-3.929,2.657-1.414,1.414L15.51,16.923l-.656.356a5.987,5.987,0,0,1-1.139.469L13,17.96V21H11V17.96l-.715-.212a5.987,5.987,0,0,1-1.139-.469l-.656-.356L6.343,19.071,4.929,17.657,7.077,15.51l-.356-.656a5.987,5.987,0,0,1-.469-1.139L6.04,13H3V11H6.04l.212-.715a5.987,5.987,0,0,1,.469-1.139l.356-.656L4.929,6.343,6.343,4.929,8.49,7.077l.656-.356a5.987,5.987,0,0,1,1.139-.469L11,6.04V3h2V6.04l.715.212a5.987,5.987,0,0,1,1.139.469l.656.356,2.147-2.148,1.414,1.414L16.923,8.49l.356.656a5.987,5.987,0,0,1,.469,1.139L17.96,11H21v2H17.96l-.212.715a5.987,5.987,0,0,1-.469,1.139l-.356.656Z"/>
  </g>
</svg>
