<svg xmlns="http://www.w3.org/2000/svg" width="24" height="24" viewBox="0 0 24 24">
  <path d="M22.271,12.8a2.022,2.022,0,0,0-.326-.34l-.852-7.676A2,2,0,0,0,19.105,3H15V5h4.105l.778,7H4.117l.778-7H9V3H4.895A2,2,0,0,0,2.908,4.779l-.853,7.676a2.022,2.022,0,0,0-.326.34A1.987,1.987,0,0,0,1.4,14.55l1.429,5A2.007,2.007,0,0,0,4.754,21H9.279a2,2,0,0,0,1.9-1.367L11.721,18h.558l.544,1.633A2,2,0,0,0,14.721,21h4.525a2.007,2.007,0,0,0,1.922-1.45l1.429-5A1.987,1.987,0,0,0,22.271,12.8ZM19.246,19H14.721l-1-3H10.279l-1,3H4.754L3.326,14H20.674Z"/>
</svg>
