<svg xmlns="http://www.w3.org/2000/svg" width="24" height="24" viewBox="0 0 24 24">
  <path d="M21.942,15.922,22,15.917,21.073,4.834A2.012,2.012,0,0,0,19.08,3H15V5h4.08l.634,7.606A4.445,4.445,0,0,0,17.5,12a4.494,4.494,0,0,0-4.224,3H10.724A4.494,4.494,0,0,0,6.5,12a4.445,4.445,0,0,0-2.214.606L4.92,5H9V3H4.92A2.012,2.012,0,0,0,2.927,4.834L2,15.917l.055.005A4.581,4.581,0,0,0,2,16.5a4.488,4.488,0,0,0,8.949.5h2.1A4.488,4.488,0,0,0,22,16.5,4.581,4.581,0,0,0,21.942,15.922ZM6.5,19A2.5,2.5,0,1,1,9,16.5,2.5,2.5,0,0,1,6.5,19Zm11,0A2.5,2.5,0,1,1,20,16.5,2.5,2.5,0,0,1,17.5,19Z"/>
</svg>
