<svg xmlns="http://www.w3.org/2000/svg" width="24" height="24" viewBox="0 0 24 24">
  <g>
    <path d="M15,14.021V4a2.993,2.993,0,0,0-5.958-.42A3.953,3.953,0,0,0,7,3a4,4,0,0,0,0,8,3.959,3.959,0,0,0,2-.556v3.577a5,5,0,1,0,6,0ZM7,9A2,2,0,1,1,9,7,2,2,0,0,1,7,9Zm5,12a3,3,0,0,1-3-3,2.968,2.968,0,0,1,1.5-2.581l.5-.289V4a1,1,0,0,1,2,0V15.13l.5.289A2.968,2.968,0,0,1,15,18,3,3,0,0,1,12,21Z"/>
    <circle cx="12" cy="18" r="2"/>
    <rect x="17" y="4" width="4" height="2"/>
    <rect x="17" y="8" width="4" height="2"/>
    <rect x="17" y="12" width="4" height="2"/>
  </g>
</svg>
