<svg xmlns="http://www.w3.org/2000/svg" width="24" height="24" viewBox="0 0 24 24">
  <g>
    <path d="M7,7.5h6a.5.5,0,0,0,0-1H7a.5.5,0,0,0,0,1Z"/>
    <path d="M7,10.5h6a.5.5,0,0,0,0-1H7a.5.5,0,0,0,0,1Z"/>
    <path d="M11,12.5H7a.5.5,0,0,0,0,1h4a.5.5,0,0,0,0-1Z"/>
    <path d="M17,12.5a4.342,4.342,0,0,0-.5.051V9.5H20a.5.5,0,0,0,.5-.5V5A2.5,2.5,0,0,0,18,2.5H6A2.5,2.5,0,0,0,3.5,5V21a.5.5,0,0,0,.5.5H17a4.5,4.5,0,0,0,0-9ZM19.5,5V8.5h-3V5a1.5,1.5,0,0,1,3,0ZM4.5,20.5V5A1.5,1.5,0,0,1,6,3.5H16.013A2.471,2.471,0,0,0,15.5,5v7.776A4.461,4.461,0,0,0,14.206,20.5Zm12.5,0A3.5,3.5,0,1,1,20.5,17,3.5,3.5,0,0,1,17,20.5Z"/>
    <path d="M17.5,16.793V15a.5.5,0,0,0-1,0v2a.5.5,0,0,0,.146.354l1,1a.5.5,0,0,0,.708-.708Z"/>
  </g>
</svg>
