<svg xmlns="http://www.w3.org/2000/svg" width="24" height="24" viewBox="0 0 24 24">
  <g>
    <path d="M22.191,15.489l-.038-.827-6.483-.926L14.355,16.31a16.659,16.659,0,0,1-3.769-2.9A16.228,16.228,0,0,1,7.667,9.628l2.8-1.4-2.8-6.522-.76.11a5.894,5.894,0,0,0-3.391,1.7C.343,6.687,1.585,12.9,6.343,17.657c2.981,2.981,6.533,4.582,9.551,4.582a6.317,6.317,0,0,0,4.591-1.754A6.418,6.418,0,0,0,22.191,15.489Zm-3.12,3.582c-2.3,2.3-7.48,1-11.314-2.828S2.629,7.229,4.929,4.93a3.9,3.9,0,0,1,1.532-.958l1.42,3.313-1.107.553A2.01,2.01,0,0,0,5.9,10.58a18.344,18.344,0,0,0,3.268,4.248A18.659,18.659,0,0,0,13.4,18.066a2.045,2.045,0,0,0,1.583.158,1.974,1.974,0,0,0,1.186-1.01l.646-1.294,3.368.481A4.147,4.147,0,0,1,19.071,19.071Z"/>
    <polygon points="21 9 16.414 9 21.707 3.707 20.293 2.293 15 7.586 15 3 13 3 13 11 21 11 21 9"/>
  </g>
</svg>
