<?xml version="1.0" encoding="utf-8"?>
<!-- Generator: Adobe Illustrator 24.1.3, SVG Export Plug-In . SVG Version: 6.00 Build 0)  -->
<svg version="1.1" id="Design_here" xmlns="http://www.w3.org/2000/svg" xmlns:xlink="http://www.w3.org/1999/xlink" x="0px"
	 y="0px" viewBox="0 0 24 24" style="enable-background:new 0 0 24 24;" xml:space="preserve">
<path d="M20.485,19.071l-9.264-9.264c1.283-1.941,1.072-4.586-0.635-6.293c-1.95-1.949-5.122-1.948-7.071,0
	c-1.949,1.949-1.949,5.122,0,7.071c0.975,0.975,2.255,1.462,3.535,1.462c0.963,0,1.925-0.276,2.758-0.826l3.607,3.607L12,16.243
	l1.414,1.414l1.414-1.414l1.414,1.414l-2.122,2.121l1.414,1.414l2.122-2.121l1.414,1.414L20.485,19.071z M4.929,9.172
	c-1.169-1.17-1.169-3.073,0-4.243C5.514,4.344,6.282,4.052,7.05,4.052c0.768,0,1.537,0.292,2.122,0.877
	c1.169,1.17,1.169,3.073,0,4.243C8.001,10.342,6.098,10.341,4.929,9.172z"/>
</svg>
