<svg xmlns="http://www.w3.org/2000/svg" width="24" height="24" viewBox="0 0 24 24">
  <g>
    <path d="M16.65,5.768A7,7,0,0,0,5.087,9.885,6.962,6.962,0,0,0,7.6,16.438a1.03,1.03,0,0,1,.4.793V22h8V17.229a.989.989,0,0,1,.374-.771,6.992,6.992,0,0,0,.276-10.69ZM14,20H10V19h4Zm1.124-5.1A2.974,2.974,0,0,0,14.009,17H9.991a3.028,3.028,0,0,0-1.133-2.117,4.983,4.983,0,0,1-1.8-4.691,5.038,5.038,0,0,1,4.328-4.156A5,5,0,0,1,15.124,14.9Z"/>
    <rect x="20" y="7" width="2" height="2"/>
    <rect x="2" y="7" width="2" height="2"/>
    <rect x="11" y="1" width="2" height="2"/>
  </g>
</svg>
