<svg xmlns="http://www.w3.org/2000/svg" width="24" height="24" viewBox="0 0 24 24">
  <g>
    <path d="M16.952,4.052a7.049,7.049,0,0,0-9.9,0c-3.032,3.035-1.7,6.686-.432,9.169.176.343.373.678.579,1.005l3.958,6.305a1,1,0,0,0,1.694,0l4-6.37c.176-.283.347-.573.5-.869C18.638,10.788,20,7.1,16.952,4.052Zm-1.384,8.325c-.126.247-.269.488-.416.722L12,18.12,8.888,13.164c-.174-.277-.342-.56-.491-.852-1.605-3.145-1.585-5.193.066-6.846a5.05,5.05,0,0,1,7.075,0C17.2,7.129,17.209,9.2,15.568,12.377Z"/>
    <path d="M12,6a3,3,0,1,0,3,3A3,3,0,0,0,12,6Zm0,4a1,1,0,1,1,1-1A1,1,0,0,1,12,10Z"/>
  </g>
</svg>
