<svg xmlns="http://www.w3.org/2000/svg" width="24" height="24" viewBox="0 0 24 24">
  <g>
    <path d="M15,14.021V4A3,3,0,0,0,9,4l-.641-.768L7,4.365V3H5V4.365L3.641,3.232,2.359,4.768,4.438,6.5,2.359,8.232,3.641,9.768,5,8.635V10H7V8.635L8.359,9.768,9,9v5.021a5,5,0,1,0,6,0ZM7.562,6.5,9,5.3V7.7ZM12,21a3,3,0,0,1-3-3,2.968,2.968,0,0,1,1.5-2.581l.5-.289V4a1,1,0,0,1,2,0V15.13l.5.289A2.968,2.968,0,0,1,15,18,3,3,0,0,1,12,21Z"/>
    <circle cx="12" cy="18" r="2"/>
    <rect x="17" y="4" width="4" height="2"/>
    <rect x="17" y="8" width="4" height="2"/>
    <rect x="17" y="12" width="4" height="2"/>
  </g>
</svg>
