<svg xmlns="http://www.w3.org/2000/svg" width="24" height="24" viewBox="0 0 24 24">
  <path d="M21.5,10a2.5,2.5,0,0,0-2-2.449V4a.5.5,0,0,0-.7-.459l-6.3,2.7V6a.5.5,0,0,0-.5-.5H7a.5.5,0,0,0-.5.5v.5H5A2.5,2.5,0,0,0,2.5,9v2A2.5,2.5,0,0,0,5,13.5H6.5V14a.5.5,0,0,0,.5.5h.306L5.964,18.525A1.5,1.5,0,0,0,7.388,20.5h.891A1.5,1.5,0,0,0,9.7,19.475L11.361,14.5H12a.5.5,0,0,0,.5-.5v-.242l6.3,2.7a.487.487,0,0,0,.2.041.5.5,0,0,0,.5-.5V12.449A2.5,2.5,0,0,0,21.5,10ZM5,12.5a1.5,1.5,0,0,1-1.408-1H5a.5.5,0,0,0,0-1H3.5v-1H5a.5.5,0,0,0,0-1H3.592A1.5,1.5,0,0,1,5,7.5H6.5v5Zm3.753,6.659a.5.5,0,0,1-.474.341H7.388a.5.5,0,0,1-.475-.658L8.36,14.5h1.947ZM11.5,13.5h-4v-7h4v7Zm7,1.742-6-2.572V7.33l6-2.572V15.242Zm1-3.827V8.585a1.5,1.5,0,0,1,0,2.83Z"/>
</svg>
