<?xml version="1.0" encoding="utf-8"?>
<!-- Generator: Adobe Illustrator 24.1.3, SVG Export Plug-In . SVG Version: 6.00 Build 0)  -->
<svg version="1.1" id="Design_here" xmlns="http://www.w3.org/2000/svg" xmlns:xlink="http://www.w3.org/1999/xlink" x="0px"
	 y="0px" viewBox="0 0 24 24" style="enable-background:new 0 0 24 24;" xml:space="preserve">
<path d="M21.707,20.293l-4.109-4.109C18.474,15.015,19,13.57,19,12V9h-2v3c0,1.017-0.309,1.962-0.833,2.753l-0.734-0.734
	C15.785,13.424,16,12.74,16,12V6c0-2.206-1.794-4-4-4S8,3.794,8,6v0.586L3.707,2.293L2.293,3.707L8,9.414V12c0,2.206,1.794,4,4,4
	c0.74,0,1.424-0.215,2.019-0.567l0.734,0.734C13.962,16.691,13.017,17,12,17c-2.757,0-5-2.243-5-5V9H5v3c0,3.86,3.14,7,7,7
	c1.57,0,3.015-0.526,4.184-1.402l4.109,4.109L21.707,20.293z M10,6c0-1.103,0.897-2,2-2s2,0.897,2,2v6
	c0,0.178-0.031,0.347-0.075,0.511L10,8.586V6z M12,14c-1.103,0-2-0.897-2-2v-0.586l2.511,2.511C12.347,13.969,12.178,14,12,14z"/>
<g>
	<rect x="11" y="18" width="2" height="3"/>
</g>
</svg>
