<?xml version="1.0" encoding="utf-8"?>
<!-- Generator: Adobe Illustrator 24.1.3, SVG Export Plug-In . SVG Version: 6.00 Build 0)  -->
<svg version="1.1" id="Design_here" xmlns="http://www.w3.org/2000/svg" xmlns:xlink="http://www.w3.org/1999/xlink" x="0px"
	 y="0px" viewBox="0 0 24 24" style="enable-background:new 0 0 24 24;" xml:space="preserve">
<g>
	<path d="M12,16c2.206,0,4-1.794,4-4V6c0-2.206-1.794-4-4-4S8,3.794,8,6v6C8,14.206,9.794,16,12,16z M10,6c0-1.103,0.897-2,2-2
		s2,0.897,2,2v6c0,1.103-0.897,2-2,2s-2-0.897-2-2V6z"/>
	<path d="M17,9v3c0,2.757-2.243,5-5,5s-5-2.243-5-5V9H5v3c0,3.519,2.614,6.432,6,6.92V21h2v-2.08c3.386-0.488,6-3.401,6-6.92V9H17z"
		/>
</g>
</svg>
