<svg xmlns="http://www.w3.org/2000/svg" width="24" height="24" viewBox="0 0 24 24">
  <g>
    <polygon points="13 7 11 7 11 8 9 8 9 13 13 13 13 14 9 14 9 16 11 16 11 17 13 17 13 16 15 16 15 11 11 11 11 10 15 10 15 8 13 8 13 7"/>
    <path d="M1,4V20H23V4ZM21,7.816A3,3,0,0,1,19.184,6H21ZM17.1,18H6.9A5.016,5.016,0,0,0,3,14.1V9.9A5.016,5.016,0,0,0,6.9,6H17.1A5.016,5.016,0,0,0,21,9.9v4.2A5.016,5.016,0,0,0,17.1,18ZM4.816,6A3,3,0,0,1,3,7.816V6ZM3,16.184A3,3,0,0,1,4.816,18H3ZM19.184,18A3,3,0,0,1,21,16.184V18Z"/>
  </g>
</svg>
