<svg xmlns="http://www.w3.org/2000/svg" width="24" height="24" viewBox="0 0 24 24">
  <path d="M18.324,14.533l-.567-2.058A1.39,1.39,0,0,0,18,12.5h1a.5.5,0,0,0,.5-.5V10a.5.5,0,0,0-.5-.5H18a1.489,1.489,0,0,0-.964.36l-.1-.36H17a.5.5,0,0,0,.5-.5V7a.5.5,0,0,0-.5-.5H15.118l-1.894-.947a.5.5,0,1,0-.448.894L13.888,7a1.485,1.485,0,0,0,.667,2.422l.624,4.363A1.5,1.5,0,0,1,13.694,15.5H13A1.5,1.5,0,0,1,11.5,14v-.5H13a.5.5,0,0,0,.5-.5V11a.5.5,0,0,0-.5-.5H9.5V5A.5.5,0,0,0,9,4.5H3a.5.5,0,0,0-.5.5v6a.5.5,0,0,0,.5.5H7.5v1H7a3.5,3.5,0,0,0-3.488,3.383A2.945,2.945,0,0,0,2.5,18a.5.5,0,0,0,.5.5h.551a2.5,2.5,0,0,0,4.9,0h7.1a2.5,2.5,0,0,0,4.9,0H21a.5.5,0,0,0,.5-.5A3.492,3.492,0,0,0,18.324,14.533ZM18,10.5h.5v1H18a.5.5,0,0,1,0-1Zm2.45,7h-4.9a2.5,2.5,0,0,1,4.9,0ZM17.3,14.571a3.478,3.478,0,0,0-1.457.7,2.489,2.489,0,0,0,.329-1.621L15.577,9.5H15.9ZM15,7.5h1.5v1H15a.5.5,0,0,1,0-1ZM3.5,5.5h5v5h-5Zm5,6h4v1h-4ZM7,13.5h3.5V14A2.5,2.5,0,0,0,13,16.5h.694a2.485,2.485,0,0,0,1.394-.437,3.478,3.478,0,0,0-.537,1.437H9.5c-.026-1.395-.269-3-2.5-3a5.308,5.308,0,0,0-2.314.561A2.5,2.5,0,0,1,7,13.5Zm-3.412,4A3.72,3.72,0,0,1,7,15.5c1.237,0,1.463.558,1.495,2ZM6,19.5a1.5,1.5,0,0,1-1.408-1H7.408A1.5,1.5,0,0,1,6,19.5Zm12,0a1.5,1.5,0,0,1-1.408-1h2.816A1.5,1.5,0,0,1,18,19.5Z"/>
</svg>
