<svg xmlns="http://www.w3.org/2000/svg" width="24" height="24" viewBox="0 0 24 24">
  <path d="M21,2.913,7,4.08V16.316A6.22,6.22,0,0,0,5,16c-2.318,0-4,1.051-4,2.5S2.682,21,5,21s4-1.051,4-2.5a1.81,1.81,0,0,0-.073-.5H9V9.92l10-.833v6.229A6.22,6.22,0,0,0,17,15c-2.318,0-4,1.051-4,2.5S14.682,20,17,20s4-1.051,4-2.5a1.81,1.81,0,0,0-.073-.5H21ZM5,19a3.259,3.259,0,0,1-1.941-.5A3.259,3.259,0,0,1,5,18a3.259,3.259,0,0,1,1.941.5A3.259,3.259,0,0,1,5,19ZM9,7.913V5.92l10-.833V7.08ZM17,18a3.259,3.259,0,0,1-1.941-.5A3.259,3.259,0,0,1,17,17a3.259,3.259,0,0,1,1.941.5A3.259,3.259,0,0,1,17,18Z"/>
</svg>
