<?xml version="1.0" encoding="utf-8"?>
<!-- Generator: Adobe Illustrator 24.1.3, SVG Export Plug-In . SVG Version: 6.00 Build 0)  -->
<svg version="1.1" id="Design_here" xmlns="http://www.w3.org/2000/svg" xmlns:xlink="http://www.w3.org/1999/xlink" x="0px"
	 y="0px" viewBox="0 0 24 24" style="enable-background:new 0 0 24 24;" xml:space="preserve">
<g>
	<path d="M21.962,8.763l-3.371-1.551l-0.435-3.686l-3.639,0.727L12,1.526L9.482,4.252L5.844,3.526L5.409,7.212L2.038,8.763L3.854,12
		l-1.815,3.237l3.371,1.551l0.435,3.686l3.639-0.727L12,22.474l2.518-2.727l3.639,0.727l0.435-3.686l3.371-1.551L20.146,12
		L21.962,8.763z M19.157,14.326l-2.422,1.115l-0.312,2.648l-2.615-0.522L12,19.526l-1.809-1.959l-2.615,0.522L7.265,15.44
		l-2.422-1.115L6.146,12L4.843,9.674L7.265,8.56l0.312-2.648l2.615,0.522L12,4.474l1.809,1.959l2.615-0.522l0.312,2.648l2.422,1.115
		L17.854,12L19.157,14.326z"/>
	<rect x="11" y="8" width="2" height="5"/>
	<rect x="11" y="14" width="2" height="2"/>
</g>
</svg>
