<svg xmlns="http://www.w3.org/2000/svg" width="24" height="24" viewBox="0 0 24 24">
  <g>
    <path d="M12,15a3,3,0,1,0,3,3A3,3,0,0,0,12,15Zm0,4a1,1,0,1,1,1-1A1,1,0,0,1,12,19Z"/>
    <path d="M21.286,8.9l1.428-1.4a15.13,15.13,0,0,0-2.657-2.145l1.65-1.65L20.293,2.293,18.226,4.36A14.976,14.976,0,0,0,1.286,7.5L2.714,8.9A12.978,12.978,0,0,1,16.7,5.885L15.132,7.454A11.06,11.06,0,0,0,12,7a10.917,10.917,0,0,0-7.854,3.3l1.427,1.4A8.936,8.936,0,0,1,12,9a9.169,9.169,0,0,1,1.459.127l-1.9,1.9a7.006,7.006,0,0,0-4.78,2.31l1.3,1.167L2.293,20.293l1.414,1.414,8.686-8.686a5.007,5.007,0,0,1,3.334,1.646l1.49-1.334a7.012,7.012,0,0,0-3.127-2.009l1.553-1.552A8.989,8.989,0,0,1,18.427,11.7l1.427-1.4a11.03,11.03,0,0,0-2.713-2.027L18.6,6.812A13.056,13.056,0,0,1,21.286,8.9Z"/>
  </g>
</svg>
