<?xml version="1.0" encoding="utf-8"?>
<!-- Generator: Adobe Illustrator 24.1.3, SVG Export Plug-In . SVG Version: 6.00 Build 0)  -->
<svg version="1.1" id="Design_here" xmlns="http://www.w3.org/2000/svg" xmlns:xlink="http://www.w3.org/1999/xlink" x="0px"
	 y="0px" viewBox="0 0 24 24" style="enable-background:new 0 0 24 24;" xml:space="preserve">
<g>
	<path d="M19,13.877V9c0-2.757-2.243-5-5-5h-1V3c0-0.552-0.448-1-1-1s-1,0.448-1,1v1h-1C7.243,4,5,6.243,5,9v4.877L4.219,17H3v2h5
		c0,1.654,1.346,3,3,3h2c1.654,0,3-1.346,3-3h5v-2h-1.219L19,13.877z M6.281,17l0.689-2.757L7,9c0-1.654,1.346-3,3-3h4
		c1.654,0,3,1.346,3,3v5l0.728,3H6.281z M13,20h-2c-0.551,0-1-0.449-1-1h4C14,19.551,13.551,20,13,20z"/>
	<path d="M4.317,6.858C4.661,5.546,5.631,4.51,6.92,4.081l0.396-0.132L6.684,2.051L6.288,2.183C4.331,2.836,2.864,4.419,2.364,6.42
		L2.01,8.858L3.99,9.142L4.317,6.858z"/>
	<path d="M19.683,6.858l0.327,2.284l1.979-0.283l-0.334-2.337l-0.02-0.101c-0.5-2-1.967-3.584-3.924-4.237l-0.396-0.132
		l-0.632,1.897l0.396,0.132C18.369,4.51,19.339,5.546,19.683,6.858z"/>
</g>
</svg>
