<?xml version="1.0" encoding="utf-8"?>
<!-- Generator: Adobe Illustrator 24.1.3, SVG Export Plug-In . SVG Version: 6.00 Build 0)  -->
<svg version="1.1" id="Design_here" xmlns="http://www.w3.org/2000/svg" xmlns:xlink="http://www.w3.org/1999/xlink" x="0px"
	 y="0px" viewBox="0 0 24 24" style="enable-background:new 0 0 24 24;" xml:space="preserve">
<g>
	<path d="M10,6h4c1.654,0,3,1.346,3,3v5h2V9c0-2.757-2.243-5-5-5h-1V3c0-0.552-0.448-1-1-1s-1,0.448-1,1v1h-1
		C9.579,4,9.159,4.053,8.751,4.157l0.497,1.938C9.493,6.032,9.746,6,10,6z"/>
	<path d="M21.707,20.293L20.414,19H21v-2h-2.586L3.707,2.293L2.293,3.707l3.183,3.183C5.169,7.549,5,8.268,5,9v4.877L4.219,17H3v2h5
		c0,1.654,1.346,3,3,3h2c1.654,0,3-1.346,3-3h1.586l2.707,2.707L21.707,20.293z M13,20h-2c-0.551,0-1-0.449-1-1h4
		C14,19.551,13.552,20,13,20z M6.281,17l0.689-2.757L7,9c0-0.176,0.038-0.346,0.068-0.518L15.586,17H6.281z"/>
</g>
</svg>
