<svg xmlns="http://www.w3.org/2000/svg" width="24" height="24" viewBox="0 0 24 24">
  <g>
    <path d="M13.75,6.97A3.516,3.516,0,0,1,15.5,10a.5.5,0,0,0,1,0,4.519,4.519,0,0,0-2.25-3.9.5.5,0,0,0-.5.866Z"/>
    <path d="M19.406,16.563,18.5,12.938V10a6.506,6.506,0,0,0-5-6.318V3a1.5,1.5,0,0,0-3,0v.682A6.506,6.506,0,0,0,5.5,10v2.938l-.906,3.625A1.5,1.5,0,0,0,5,19.5H8.551a3.483,3.483,0,0,0,6.9,0H19a1.5,1.5,0,0,0,.406-2.937ZM11.5,3.5V3a.5.5,0,0,1,1,0v.5ZM6.5,13V10a5.5,5.5,0,0,1,11,0v3a.489.489,0,0,0,.015.121L18.36,16.5H5.64l.845-3.379A.489.489,0,0,0,6.5,13ZM12,21.5a2.5,2.5,0,0,1-2.449-2h4.9A2.5,2.5,0,0,1,12,21.5Zm7-3H5a.5.5,0,0,1,0-1H19a.5.5,0,0,1,0,1Z"/>
  </g>
</svg>
