<svg xmlns="http://www.w3.org/2000/svg" width="24" height="24" viewBox="0 0 24 24">
  <g>
    <path d="M21,17H19.781L19,13.877V10H17v4l.728,3H6.281l.689-2.757L7,10a5.005,5.005,0,0,1,6.667-4.716L14.333,3.4A7,7,0,0,0,13,3.084V2H11V3.08A7,7,0,0,0,5,10v3.877L4.219,17H3v2H8.142a3.981,3.981,0,0,0,7.716,0H21Zm-9,3a1.993,1.993,0,0,1-1.722-1h3.444A1.993,1.993,0,0,1,12,20Z"/>
    <polygon points="16.586 8.828 18 7.414 19.414 8.828 20.828 7.414 19.414 6 20.828 4.586 19.414 3.172 18 4.586 16.586 3.172 15.172 4.586 16.586 6 15.172 7.414 16.586 8.828"/>
  </g>
</svg>
