<?xml version="1.0" encoding="utf-8"?>
<!-- Generator: Adobe Illustrator 24.1.3, SVG Export Plug-In . SVG Version: 6.00 Build 0)  -->
<svg version="1.1" id="Design_here" xmlns="http://www.w3.org/2000/svg" xmlns:xlink="http://www.w3.org/1999/xlink" x="0px"
	 y="0px" viewBox="0 0 24 24" style="enable-background:new 0 0 24 24;" xml:space="preserve">
<path d="M19.781,17L19,13.877V9c0-2.757-2.243-5-5-5h-1V3c0-0.552-0.448-1-1-1s-1,0.448-1,1v1h-1C7.243,4,5,6.243,5,9v4.877
	L4.219,17H3v2h5c0,1.654,1.346,3,3,3h2c1.654,0,3-1.346,3-3h5v-2H19.781z M6.281,17l0.689-2.757L7,9c0-1.654,1.346-3,3-3h4
	c1.654,0,3,1.346,3,3v5l0.728,3H6.281z M13,20h-2c-0.551,0-1-0.449-1-1h4C14,19.551,13.551,20,13,20z"/>
</svg>
