<svg xmlns="http://www.w3.org/2000/svg" width="24" height="24" viewBox="0 0 24 24">
  <g>
    <path d="M20,10h2a10,10,0,0,0-4.443-8.311L16.443,3.351A8,8,0,0,1,20,10Z"/>
    <path d="M7.557,3.351,6.443,1.689A10,10,0,0,0,2,10H4A8,8,0,0,1,7.557,3.351Z"/>
    <path d="M19,13.877V10a7,7,0,0,0-6-6.92V2H11V3.08A7,7,0,0,0,5,10v3.877L4.219,17H3v2H8.142a3.981,3.981,0,0,0,7.716,0H21V17H19.781Zm-12.03.366L7,10a5,5,0,0,1,10,0v4l.728,3H6.281ZM12,20a1.993,1.993,0,0,1-1.722-1h3.444A1.993,1.993,0,0,1,12,20Z"/>
  </g>
</svg>
