<svg xmlns="http://www.w3.org/2000/svg" width="24" height="24" viewBox="0 0 24 24">
  <path d="M20.293,21.707l1.414-1.414L20.414,19H21V17H19.781L19,13.877V10a7,7,0,0,0-6-6.92V2H11V3.08A6.982,6.982,0,0,0,6.774,5.359L3.707,2.293,2.293,3.707l3.36,3.36A6.94,6.94,0,0,0,5,10v3.877L4.219,17H3v2H8.142a3.981,3.981,0,0,0,7.716,0h1.728ZM12,5a5.006,5.006,0,0,1,5,5v4l.508,2.094L8.2,6.787A4.971,4.971,0,0,1,12,5Zm0,15a1.993,1.993,0,0,1-1.722-1h3.444A1.993,1.993,0,0,1,12,20ZM6.281,17l.689-2.757L7,10a4.937,4.937,0,0,1,.215-1.371L15.586,17Z"/>
</svg>
