<svg xmlns="http://www.w3.org/2000/svg" width="24" height="24" viewBox="0 0 24 24">
  <path d="M21.447,5.105A12.147,12.147,0,0,0,16.5,4a12.28,12.28,0,0,0-4.5.907A12.28,12.28,0,0,0,7.5,4,12.147,12.147,0,0,0,2.553,5.105L2,5.382,2,21.608,3.445,20.9A10.239,10.239,0,0,1,7.5,20a10.239,10.239,0,0,1,4.055.9l.445.22.445-.22A10.239,10.239,0,0,1,16.5,20a10.24,10.24,0,0,1,4.053.895L22,21.618V5.382ZM4,18.55V6.664A10.244,10.244,0,0,1,7.5,6a10.182,10.182,0,0,1,3.5.666V18.553A11.929,11.929,0,0,0,7.5,18,11.989,11.989,0,0,0,4,18.55Zm16,0A11.989,11.989,0,0,0,16.5,18a11.929,11.929,0,0,0-3.5.553V6.666A10.182,10.182,0,0,1,16.5,6a10.268,10.268,0,0,1,3.5.664Z"/>
</svg>
