<svg xmlns="http://www.w3.org/2000/svg" width="24" height="24" viewBox="0 0 24 24">
  <g>
    <path d="M12,15.5H6a.5.5,0,0,0-.5.5v2a.5.5,0,0,0,.5.5h6a.5.5,0,0,0,.5-.5V16A.5.5,0,0,0,12,15.5Zm-.5,2h-5v-1h5Z"/>
    <path d="M21,2.5H3a.5.5,0,0,0-.5.5V8a.5.5,0,0,0,.5.5h.5V20A1.5,1.5,0,0,0,5,21.5H19A1.5,1.5,0,0,0,20.5,20V8.5H21a.5.5,0,0,0,.5-.5V3A.5.5,0,0,0,21,2.5Zm-7.5,1v7h-3v-7Zm-10,0h6v4h-6ZM19.5,20a.5.5,0,0,1-.5.5H5a.5.5,0,0,1-.5-.5V8.5h5V11a.5.5,0,0,0,.5.5h4a.5.5,0,0,0,.5-.5V8.5h5Zm1-12.5h-6v-4h6Z"/>
  </g>
</svg>
