<svg xmlns="http://www.w3.org/2000/svg" width="24" height="24" viewBox="0 0 24 24">
  <path d="M20.325,2.946c-.256-.186-.939-.675-3.61.241a9.868,9.868,0,0,0-3.3,1.742,3.965,3.965,0,0,0-1.15,2.624L1.629,19.629l2.742,2.742L16.447,11.736a3.975,3.975,0,0,0,2.624-1.15,3.681,3.681,0,0,0,.906-2.777,6.767,6.767,0,0,1,.7-3.14A1.3,1.3,0,0,0,20.325,2.946ZM18.466,4.755a9.147,9.147,0,0,0-.488,2.99c-.028.847-.061,1.167-.321,1.427a2,2,0,0,1-1.369.58l-.164-.01a2.058,2.058,0,0,1-.908-.275c-.019-.011-.039-.018-.057-.03a1.926,1.926,0,0,1-.6-.6c-.011-.018-.018-.038-.029-.056a2.051,2.051,0,0,1-.276-.909l-.01-.164a1.989,1.989,0,0,1,.58-1.369A10.432,10.432,0,0,1,18.466,4.755ZM4.458,19.629l-.087-.087L12.865,9.9l.013.016a3.927,3.927,0,0,0,.536.674,4.009,4.009,0,0,0,.673.536l.017.013Z"/>
</svg>
