<?xml version="1.0" encoding="utf-8"?>
<!-- Generator: Adobe Illustrator 24.1.3, SVG Export Plug-In . SVG Version: 6.00 Build 0)  -->
<svg version="1.1" id="Design_here" xmlns="http://www.w3.org/2000/svg" xmlns:xlink="http://www.w3.org/1999/xlink" x="0px"
	 y="0px" viewBox="0 0 24 24" style="enable-background:new 0 0 24 24;" xml:space="preserve">
<g>
	<rect x="2" y="11" width="8" height="2"/>
	<path d="M17,13h-4c-2.757,0-5,2.243-5,5v3h14v-3C22,15.243,19.757,13,17,13z M20,19H10v-1c0-1.654,1.346-3,3-3h4
		c1.654,0,3,1.346,3,3V19z"/>
	<path d="M15,12c2.757,0,5-2.243,5-5s-2.243-5-5-5s-5,2.243-5,5S12.243,12,15,12z M15,4c1.654,0,3,1.346,3,3s-1.346,3-3,3
		s-3-1.346-3-3S13.346,4,15,4z"/>
</g>
</svg>
