<?xml version="1.0" encoding="utf-8"?>
<!-- Generator: Adobe Illustrator 24.1.3, SVG Export Plug-In . SVG Version: 6.00 Build 0)  -->
<svg version="1.1" id="Design_here" xmlns="http://www.w3.org/2000/svg" xmlns:xlink="http://www.w3.org/1999/xlink" x="0px"
	 y="0px" viewBox="0 0 24 24" style="enable-background:new 0 0 24 24;" xml:space="preserve">
<g>
	<path d="M19,21H5v-3c0-2.757,2.243-5,5-5h4c2.757,0,5,2.243,5,5V21z M7,19h10v-1c0-1.654-1.346-3-3-3h-4c-1.654,0-3,1.346-3,3V19z"
		/>
</g>
<g>
	<path d="M12,12c-2.757,0-5-2.243-5-5s2.243-5,5-5s5,2.243,5,5S14.757,12,12,12z M12,4c-1.654,0-3,1.346-3,3s1.346,3,3,3
		s3-1.346,3-3S13.654,4,12,4z"/>
</g>
</svg>
