<?xml version="1.0" encoding="utf-8"?>
<!-- Generator: Adobe Illustrator 24.1.3, SVG Export Plug-In . SVG Version: 6.00 Build 0)  -->
<svg version="1.1" id="Design_here" xmlns="http://www.w3.org/2000/svg" xmlns:xlink="http://www.w3.org/1999/xlink" x="0px"
	 y="0px" viewBox="0 0 24 24" style="enable-background:new 0 0 24 24;" xml:space="preserve">
<g>
	<rect x="14" y="11" width="8" height="2"/>
	<path d="M11,13H7c-2.757,0-5,2.243-5,5v3h14v-3C16,15.243,13.757,13,11,13z M14,19H4v-1c0-1.654,1.346-3,3-3h4c1.654,0,3,1.346,3,3
		V19z"/>
	<path d="M9,12c2.757,0,5-2.243,5-5s-2.243-5-5-5S4,4.243,4,7S6.243,12,9,12z M9,4c1.654,0,3,1.346,3,3s-1.346,3-3,3S6,8.654,6,7
		S7.346,4,9,4z"/>
</g>
</svg>
