<svg xmlns="http://www.w3.org/2000/svg" width="24" height="24" viewBox="0 0 24 24">
  <path d="M22.191,15.489l-.038-.827-6.483-.926L14.355,16.31a15.9,15.9,0,0,1-3.041-2.21L21.707,3.707,20.293,2.293,9.9,12.687A15.082,15.082,0,0,1,7.667,9.628l2.8-1.4L7.667,1.708l-.76.11a5.894,5.894,0,0,0-3.392,1.7C.5,6.527,1.478,12.28,5.659,16.927L2.293,20.293l1.414,1.414,3.372-3.372a13.808,13.808,0,0,0,8.815,3.9,6.316,6.316,0,0,0,4.591-1.753A6.418,6.418,0,0,0,22.191,15.489ZM4.929,4.929a3.9,3.9,0,0,1,1.532-.957l1.42,3.313-1.107.553A2.01,2.01,0,0,0,5.9,10.58,17.288,17.288,0,0,0,8.486,14.1L7.072,15.514C3.777,11.777,2.772,7.086,4.929,4.929ZM19.071,19.071c-2.157,2.155-6.847,1.15-10.584-2.144L9.9,15.514a17.958,17.958,0,0,0,3.5,2.553,2.051,2.051,0,0,0,1.584.157,1.977,1.977,0,0,0,1.184-1.01l.647-1.294,3.367.481A4.152,4.152,0,0,1,19.071,19.071Z"/>
</svg>
