<?xml version="1.0" encoding="utf-8"?>
<!-- Generator: Adobe Illustrator 24.1.3, SVG Export Plug-In . SVG Version: 6.00 Build 0)  -->
<svg version="1.1" id="Design_here" xmlns="http://www.w3.org/2000/svg" xmlns:xlink="http://www.w3.org/1999/xlink" x="0px"
	 y="0px" viewBox="0 0 24 24" style="enable-background:new 0 0 24 24;" xml:space="preserve">
<g>
	<path d="M22.191,15.489l-0.038-0.827l-6.483-0.926l-1.315,2.573c-1.272-0.691-2.541-1.666-3.77-2.896
		c-1.289-1.288-2.27-2.558-2.919-3.786l2.795-1.397L7.667,1.708l-0.76,0.11C5.591,2.009,4.45,2.58,3.515,3.515
		c-3.172,3.172-1.93,9.385,2.829,14.143c2.981,2.98,6.533,4.582,9.55,4.581c1.798,0,3.407-0.568,4.592-1.753
		C21.696,19.275,22.286,17.548,22.191,15.489z M19.071,19.071c-2.3,2.298-7.48,1.003-11.314-2.828
		C3.924,12.41,2.629,7.229,4.929,4.929c0.443-0.442,0.957-0.764,1.532-0.957l1.42,3.313L6.774,7.838
		C6.288,8.081,5.929,8.501,5.763,9.02c-0.167,0.521-0.116,1.076,0.142,1.561c0.739,1.391,1.838,2.819,3.267,4.248
		c1.364,1.365,2.787,2.455,4.229,3.239c0.484,0.263,1.062,0.32,1.584,0.156c0.52-0.164,0.94-0.522,1.184-1.01l0.647-1.294
		l3.367,0.481C20.113,17.295,19.836,18.306,19.071,19.071z"/>
	<rect x="20" y="6" width="2" height="2"/>
	<rect x="16" y="6" width="2" height="2"/>
	<rect x="12" y="6" width="2" height="2"/>
</g>
</svg>
