<svg xmlns="http://www.w3.org/2000/svg" width="24" height="24" viewBox="0 0 24 24">
  <path d="M21.691,15.513a.5.5,0,0,0-.428-.472l-4.951-.708a.5.5,0,0,0-.517.272l-.969,1.938a.483.483,0,0,1-.293.249.528.528,0,0,1-.416-.042,17.241,17.241,0,0,1-3.885-2.982,16.829,16.829,0,0,1-3-3.893.51.51,0,0,1-.038-.4.5.5,0,0,1,.254-.3L9.4,8.205a.5.5,0,0,0,.236-.644L7.51,2.611a.49.49,0,0,0-.532-.3,5.4,5.4,0,0,0-3.11,1.555C.944,6.792,2.213,12.819,6.7,17.3c2.852,2.851,6.326,4.4,9.231,4.4a5.787,5.787,0,0,0,4.205-1.574A5.941,5.941,0,0,0,21.691,15.513Zm-5.163-.138,4.173.6a6.4,6.4,0,0,1-.091,1.039l-4.578-.642Zm-8-7.854-1.072.536L5.47,3.886a4.393,4.393,0,0,1,1.278-.514Zm10.9,11.9C16.891,21.959,11.5,20.69,7.4,16.6S2.041,7.109,4.575,4.575c.026-.026.056-.046.082-.071L6.6,8.593a1.483,1.483,0,0,0-.363.578,1.5,1.5,0,0,0,.107,1.174,17.845,17.845,0,0,0,3.179,4.13,18.179,18.179,0,0,0,4.115,3.153,1.538,1.538,0,0,0,1.193.119,1.472,1.472,0,0,0,.646-.447l4.862.682A4.091,4.091,0,0,1,19.425,19.425Z"/>
</svg>
