<?xml version="1.0" encoding="utf-8"?>
<!-- Generator: Adobe Illustrator 24.1.3, SVG Export Plug-In . SVG Version: 6.00 Build 0)  -->
<svg version="1.1" id="Design_here" xmlns="http://www.w3.org/2000/svg" xmlns:xlink="http://www.w3.org/1999/xlink" x="0px"
	 y="0px" viewBox="0 0 24 24" style="enable-background:new 0 0 24 24;" xml:space="preserve">
<g>
	<path d="M22.191,15.489l-0.038-0.827l-6.483-0.926l-1.314,2.573c-1.272-0.691-2.541-1.666-3.77-2.896
		c-1.289-1.289-2.271-2.559-2.919-3.786l2.796-1.397L7.666,1.708l-0.76,0.11c-1.314,0.19-2.455,0.761-3.392,1.696
		c-3.172,3.172-1.93,9.384,2.828,14.143c2.981,2.98,6.533,4.582,9.551,4.582c1.799,0,3.407-0.569,4.592-1.754
		C21.696,19.275,22.286,17.548,22.191,15.489z M19.071,19.071c-2.3,2.298-7.48,1.005-11.314-2.828
		C3.925,12.41,2.629,7.229,4.929,4.93c0.443-0.443,0.957-0.765,1.532-0.958l1.42,3.313L6.774,7.838
		C6.288,8.081,5.929,8.501,5.763,9.02c-0.166,0.522-0.116,1.076,0.142,1.561c0.738,1.389,1.838,2.818,3.268,4.248
		c1.364,1.365,2.787,2.455,4.228,3.238c0.484,0.264,1.062,0.321,1.583,0.157c0.521-0.163,0.941-0.521,1.186-1.01l0.646-1.294
		l3.367,0.481C20.113,17.295,19.837,18.306,19.071,19.071z"/>
	<path d="M20,12h2c0-5.514-4.486-10-10-10v2C16.411,4,20,7.589,20,12z"/>
	<path d="M16,12h2c0-3.309-2.691-6-6-6v2C14.206,8,16,9.794,16,12z"/>
</g>
</svg>
