<svg xmlns="http://www.w3.org/2000/svg" width="24" height="24" viewBox="0 0 24 24">
  <g>
    <path d="M19.472,14.847A7.991,7.991,0,0,0,9.153,4.528c-2.711-1.7-4.608-2.043-5.638-1.013C2.343,4.687,3.1,6.877,4.529,9.149A7.991,7.991,0,0,0,14.848,19.472a8.6,8.6,0,0,0,4.11,1.591,2.069,2.069,0,0,0,1.527-.578C21.515,19.456,21.171,17.557,19.472,14.847Zm-3.229-7.09a5.984,5.984,0,0,1-1.227,9.425,33.464,33.464,0,0,1-4.43-3.768A33.938,33.938,0,0,1,6.815,8.989a6.049,6.049,0,0,1,.942-1.232,6,6,0,0,1,8.486,0ZM4.895,4.955c.149-.068.85-.021,2.231.71a8.213,8.213,0,0,0-.783.678,8.15,8.15,0,0,0-.691.8C5.03,6.01,4.791,5.224,4.895,4.955ZM12,18a6,6,0,0,1-6-6,6.072,6.072,0,0,1,.045-.7,39.4,39.4,0,0,0,3.127,3.531A39.4,39.4,0,0,0,12.7,17.955,6.072,6.072,0,0,1,12,18Zm7.105,1.045c-.292.128-1.092-.1-2.233-.709a7.989,7.989,0,0,0,.785-.679,8.194,8.194,0,0,0,.678-.783A4.991,4.991,0,0,1,19.105,19.045Z"/>
    <rect x="10" y="8" width="2" height="2"/>
    <rect x="13" y="12" width="2" height="2"/>
    <rect x="14" y="9" width="2" height="2"/>
  </g>
</svg>
