<svg xmlns="http://www.w3.org/2000/svg" width="24" height="24" viewBox="0 0 24 24">
  <g>
    <path d="M21.421,6.834A1.986,1.986,0,0,0,20.2,5.712h0a17.6,17.6,0,0,1-6.832-3.675,1.975,1.975,0,0,0-2.744,0A17.6,17.6,0,0,1,3.8,5.712,2,2,0,0,0,2.634,8.5L4,11.236V15a7.008,7.008,0,0,0,7,7h2a7.008,7.008,0,0,0,7-7V11.236L21.366,8.5A2,2,0,0,0,21.421,6.834ZM18,10.764V15a5.006,5.006,0,0,1-5,5H11a5.006,5.006,0,0,1-5-5V10.764L4.413,7.614a19.031,19.031,0,0,0,7.572-4.135,19.439,19.439,0,0,0,7.592,4.132Z"/>
    <path d="M9,17h2V14h2a3,3,0,0,0,0-6H9Zm2-7h2a1,1,0,0,1,0,2H11Z"/>
  </g>
</svg>
