<svg xmlns="http://www.w3.org/2000/svg" width="24" height="24" viewBox="0 0 24 24">
  <path d="M21,5.086H16.651l.612-.408a1.5,1.5,0,0,0,.228-2.309,2.113,2.113,0,0,0-2.982,0L12,4.879,9.491,2.369a2.113,2.113,0,0,0-2.982,0,1.5,1.5,0,0,0,.228,2.308l.612.408H3a.5.5,0,0,0-.5.5v4a.5.5,0,0,0,.5.5h.5V20A1.5,1.5,0,0,0,5,21.5H19A1.5,1.5,0,0,0,20.5,20V10.086H21a.5.5,0,0,0,.5-.5v-4A.5.5,0,0,0,21,5.086ZM15.216,3.077a1.111,1.111,0,0,1,1.568,0,.5.5,0,0,1-.076.769l-1.859,1.24H13.207ZM10.5,9.086v-3h3v3Zm3,1V20.5h-3V10.086ZM7.292,3.846a.5.5,0,0,1-.076-.769,1.111,1.111,0,0,1,1.568,0l2.009,2.009H9.151ZM3.5,6.086h6v3h-6ZM4.5,20V10.086h5V20.5H5A.5.5,0,0,1,4.5,20Zm15,0a.5.5,0,0,1-.5.5H14.5V10.086h5Zm1-10.914h-6v-3h6Z"/>
</svg>
