<svg xmlns="http://www.w3.org/2000/svg" width="24" height="24" viewBox="0 0 24 24">
  <g>
    <path d="M20,3.5H13a.5.5,0,0,0-.354.146l-11,11a.5.5,0,0,0,0,.708l7,7a.5.5,0,0,0,.708,0l11-11A.5.5,0,0,0,20.5,11V4A.5.5,0,0,0,20,3.5Zm-.5,7.293L9,21.293,2.707,15l10.5-10.5H19.5Z"/>
    <path d="M8.354,11.646a.5.5,0,0,0-.708.708l4,4a.5.5,0,0,0,.708-.708Z"/>
    <path d="M6.354,13.646a.5.5,0,0,0-.708.708l4,4a.5.5,0,0,0,.708-.708Z"/>
    <path d="M17,8.5A1.5,1.5,0,1,0,15.5,7,1.5,1.5,0,0,0,17,8.5Zm0-2a.5.5,0,1,1-.5.5A.5.5,0,0,1,17,6.5Z"/>
  </g>
</svg>
