<svg xmlns="http://www.w3.org/2000/svg" width="24" height="24" viewBox="0 0 24 24">
  <g>
    <path d="M3,8.5A.5.5,0,0,0,3.5,8V3.5H8a.5.5,0,0,0,0-1H3a.5.5,0,0,0-.5.5V8A.5.5,0,0,0,3,8.5Z"/>
    <path d="M8,20.5H3.5V16a.5.5,0,0,0-1,0v5a.5.5,0,0,0,.5.5H8a.5.5,0,0,0,0-1Z"/>
    <path d="M21,2.5H16a.5.5,0,0,0,0,1h4.5V8a.5.5,0,0,0,1,0V3A.5.5,0,0,0,21,2.5Z"/>
    <path d="M21,15.5a.5.5,0,0,0-.5.5v4.5H16a.5.5,0,0,0,0,1h5a.5.5,0,0,0,.5-.5V16A.5.5,0,0,0,21,15.5Z"/>
    <path d="M5.5,6V9a.5.5,0,0,0,.5.5H9A.5.5,0,0,0,9.5,9V6A.5.5,0,0,0,9,5.5H6A.5.5,0,0,0,5.5,6Zm1,.5h2v2h-2Z"/>
    <path d="M15,9.5h3a.5.5,0,0,0,.5-.5V6a.5.5,0,0,0-.5-.5H15a.5.5,0,0,0-.5.5V9A.5.5,0,0,0,15,9.5Zm.5-3h2v2h-2Z"/>
    <path d="M18.5,18V15a.5.5,0,0,0-.5-.5H15a.5.5,0,0,0-.5.5v3a.5.5,0,0,0,.5.5h3A.5.5,0,0,0,18.5,18Zm-1-.5h-2v-2h2Z"/>
    <path d="M9,14.5H6a.5.5,0,0,0-.5.5v3a.5.5,0,0,0,.5.5H9a.5.5,0,0,0,.5-.5V15A.5.5,0,0,0,9,14.5Zm-.5,3h-2v-2h2Z"/>
    <path d="M13,8.5H11.487V6a.5.5,0,0,0-1,0V9a.5.5,0,0,0,.5.5H13a.5.5,0,1,0,0-1Z"/>
    <path d="M13,5.508a.5.5,0,0,0-.5.5v.878a.5.5,0,1,0,1,0V6.008A.5.5,0,0,0,13,5.508Z"/>
    <path d="M10.987,16.366a.5.5,0,0,0,.5-.5V13.009a.5.5,0,0,0-.5-.5H6a.5.5,0,0,0,0,1h4.487v2.357A.5.5,0,0,0,10.987,16.366Z"/>
    <path d="M13,13.451a.5.5,0,0,0-.5.5V17.5H10.987a.5.5,0,0,0,0,1H13a.5.5,0,0,0,.5-.5V13.951A.5.5,0,0,0,13,13.451Z"/>
    <path d="M13,10.5H9a.5.5,0,0,0,0,1h3.5v.512a.5.5,0,0,0,1,0V11A.5.5,0,0,0,13,10.5Z"/>
    <path d="M15,13.509h3.008a.5.5,0,0,0,0-1H15.5V11a.5.5,0,1,0-1,0v2.005A.5.5,0,0,0,15,13.509Z"/>
    <path d="M18.008,10.5H16.983a.5.5,0,0,0,0,1h1.025a.5.5,0,0,0,0-1Z"/>
    <path d="M6.905,10.5H6a.5.5,0,1,0,0,1h.905a.5.5,0,0,0,0-1Z"/>
  </g>
</svg>
