<svg xmlns="http://www.w3.org/2000/svg" width="24" height="24" viewBox="0 0 24 24">
  <g>
    <path d="M17.6,10.2,17,9.75l-.6.45c-.451.338-4.4,3.4-4.4,6.8a5,5,0,0,0,10,0C22,13.6,18.051,10.538,17.6,10.2ZM17,20a3,3,0,0,1-3-3c0-1.708,1.819-3.67,3-4.708,1.181,1.038,3,3,3,4.708A3,3,0,0,1,17,20Z"/>
    <path d="M7.555,7.168,7,6.8l-.555.37C6.305,7.262,3,9.505,3,13a4,4,0,0,0,8,0C11,9.505,7.7,7.262,7.555,7.168ZM7,15a2,2,0,0,1-2-2A5.35,5.35,0,0,1,7,9.276,5.352,5.352,0,0,1,9,13,2,2,0,0,1,7,15Z"/>
    <path d="M17,6c0-1.276-1.6-3.018-2.293-3.707L14,1.586l-.707.707C12.6,2.982,11,4.724,11,6a3,3,0,0,0,6,0Zm-4,.017A4.913,4.913,0,0,1,14,4.48a5.012,5.012,0,0,1,1,1.531,1,1,0,0,1-2,.006Z"/>
  </g>
</svg>
