<svg xmlns="http://www.w3.org/2000/svg" width="24" height="24" viewBox="0 0 24 24">
  <path d="M19.5,15.331l-1-1.732a2.993,2.993,0,0,0-.991-5.545l-.587-.1-.192-.563a4.993,4.993,0,0,0-9.654.782l-.143.864L5.906,8.995A1.993,1.993,0,0,0,4,11a3.011,3.011,0,0,0,1.5,2.6l-1,1.732A5.021,5.021,0,0,1,2,11,4.007,4.007,0,0,1,5.277,7.065a6.993,6.993,0,0,1,13.14-.85A4.994,4.994,0,0,1,19.5,15.331Z"/>
  <polygon points="8.759 21.651 7.241 20.349 11.826 15 6.865 15 13.231 7.36 14.769 8.64 11.135 13 16.174 13 8.759 21.651"/>
  <rect x="12.798" y="17.5" width="6.403" height="2" transform="translate(-8.441 19.446) rotate(-51.362)"/>
  <rect x="1.798" y="17.5" width="6.403" height="2" transform="translate(-12.572 10.854) rotate(-51.362)"/>
</svg>
