<svg xmlns="http://www.w3.org/2000/svg" width="24" height="24" viewBox="0 0 24 24">
  <g>
    <path d="M20.5,6A2.5,2.5,0,0,0,18,3.5H6A2.5,2.5,0,0,0,3.5,6v5a.5.5,0,0,0,.5.5H7.5V21a.5.5,0,0,0,.691.462.518.518,0,0,0,.163-.109L10,19.707l1.646,1.647a.5.5,0,0,0,.708,0L14,19.707l1.646,1.647a.5.5,0,0,0,.708,0L18,19.707l1.646,1.646a.518.518,0,0,0,.163.109A.5.5,0,0,0,20.5,21Zm-16,4.5V6a1.5,1.5,0,0,1,3,0v4.5Zm13.146,8.146L16,20.293l-1.646-1.647a.517.517,0,0,0-.708,0L12,20.293l-1.646-1.647a.5.5,0,0,0-.708,0L8.5,19.793V6a2.471,2.471,0,0,0-.513-1.5H18A1.5,1.5,0,0,1,19.5,6V19.793l-1.146-1.147A.5.5,0,0,0,17.646,18.646Z"/>
    <path d="M15,12.5h2a.5.5,0,0,0,0-1H16V11a.5.5,0,0,0-1,0v.5a1.5,1.5,0,0,0,0,3h1a.5.5,0,0,1,0,1H14a.5.5,0,0,0,0,1h1V17a.5.5,0,0,0,1,0v-.5a1.5,1.5,0,0,0,0-3H15a.5.5,0,0,1,0-1Z"/>
    <path d="M17,6.5H11a.5.5,0,0,0,0,1h6a.5.5,0,0,0,0-1Z"/>
    <path d="M13,9.5H11a.5.5,0,0,0,0,1h2a.5.5,0,0,0,0-1Z"/>
  </g>
</svg>
