<svg xmlns="http://www.w3.org/2000/svg" width="24" height="24" viewBox="0 0 24 24">
  <path d="M11.6,15.146l.677-1.861L22.948,9.4l-.683-1.879-9.1,3.308,3.309-9.1L14.6,1.052,10.715,11.725l-1.824.663c.012-.129.038-.256.038-.388A3.971,3.971,0,0,0,7.757,9.172a4.093,4.093,0,0,0-5.656,0A3.99,3.99,0,0,0,7.54,15.007l2.283-.83-.831,2.284a3.989,3.989,0,1,0,5.836-.218A4.012,4.012,0,0,0,11.6,15.146ZM3.515,13.414a2,2,0,1,1,2.828,0A2.047,2.047,0,0,1,3.515,13.414Zm9.9,7.071a2.047,2.047,0,0,1-2.828,0,2,2,0,1,1,2.828,0Z"/>
</svg>
