<?xml version="1.0" encoding="utf-8"?>
<!-- Generator: Adobe Illustrator 24.1.3, SVG Export Plug-In . SVG Version: 6.00 Build 0)  -->
<svg version="1.1" id="Design_here" xmlns="http://www.w3.org/2000/svg" xmlns:xlink="http://www.w3.org/1999/xlink" x="0px"
	 y="0px" viewBox="0 0 24 24" style="enable-background:new 0 0 24 24;" xml:space="preserve">
<g>
	<path d="M21.707,20.293l-3.687-3.687C19.266,15.048,20,13.097,20,11c0-4.962-4.037-9-9-9s-9,4.038-9,9h2c0-3.86,3.141-7,7-7
		s7,3.14,7,7c0,2.867-1.718,5.416-4.375,6.492l0.75,1.854c0.824-0.333,1.573-0.782,2.242-1.314l3.676,3.676L21.707,20.293z"/>
	<polygon points="10.293,12.293 7,15.586 3.707,12.293 2.293,13.707 5.586,17 2.293,20.293 3.707,21.707 7,18.414 10.293,21.707 
		11.707,20.293 8.414,17 11.707,13.707 	"/>
</g>
</svg>
