<svg xmlns="http://www.w3.org/2000/svg" width="24" height="24" viewBox="0 0 24 24">
  <g>
    <path d="M11,4.5A6.5,6.5,0,1,0,17.5,11,6.508,6.508,0,0,0,11,4.5Zm0,12A5.5,5.5,0,1,1,13.288,6.005L10.146,9.146a.5.5,0,0,0,.708.708l3.33-3.331a5.588,5.588,0,0,1,1.293,1.293l-1.831,1.83a.5.5,0,0,0,.708.708L16,8.712A5.488,5.488,0,0,1,11,16.5Z"/>
    <path d="M21.354,18.646l-3-3a.52.52,0,0,0-.177-.112,8.529,8.529,0,1,0-2.643,2.643.52.52,0,0,0,.112.177l3,3a1.915,1.915,0,0,0,2.708-2.708ZM3.5,11A7.5,7.5,0,1,1,11,18.5,7.508,7.508,0,0,1,3.5,11Zm17.146,9.646a.915.915,0,0,1-1.292,0l-3-3c-.011-.011-.026-.014-.038-.024a8.579,8.579,0,0,0,1.306-1.306c.01.012.013.027.024.038l3,3a.913.913,0,0,1,0,1.292Z"/>
  </g>
</svg>
