<svg xmlns="http://www.w3.org/2000/svg" width="24" height="24" viewBox="0 0 24 24">
  <g>
    <path d="M12,1.976,1.925,4.215,2,5.09c.107,1.175,1.139,11.54,4.441,13.742A52.833,52.833,0,0,0,11.553,21.9l.447.223.447-.223a52.833,52.833,0,0,0,5.108-3.063C20.857,16.63,21.889,6.265,22,5.09l.079-.875Zm4.445,15.192c-2.1,1.4-3.7,2.3-4.445,2.7-.74-.4-2.35-1.3-4.445-2.7C5.791,15.992,4.547,9.9,4.085,5.783L12,4.024l7.915,1.759C19.453,9.9,18.209,15.992,16.445,17.168Z"/>
    <polygon points="9.707 10.293 8.293 11.707 12.155 15.57 16.832 8.555 15.168 7.445 11.845 12.43 9.707 10.293"/>
  </g>
</svg>
