<?xml version="1.0" encoding="utf-8"?>
<!-- Generator: Adobe Illustrator 24.1.3, SVG Export Plug-In . SVG Version: 6.00 Build 0)  -->
<svg version="1.1" id="Design_here" xmlns="http://www.w3.org/2000/svg" xmlns:xlink="http://www.w3.org/1999/xlink" x="0px"
	 y="0px" viewBox="0 0 24 24" style="enable-background:new 0 0 24 24;" xml:space="preserve">
<g>
	<path d="M12,2.96L4,5.246v7.667c0,2.255,1.096,4.385,2.932,5.697l3.907,2.79c0.347,0.248,0.754,0.372,1.162,0.372
		s0.814-0.124,1.162-0.372l3.906-2.79l0,0C18.904,17.297,20,15.167,20,12.912V5.246L12,2.96z M18,12.912
		c0,1.611-0.783,3.132-2.094,4.069l0,0L12,19.771l-3.906-2.79C6.783,16.044,6,14.523,6,12.912V6.754l6-1.714l6,1.714V12.912z"/>
	<polygon points="8.707,10.293 7.293,11.707 11,15.414 16.707,9.707 15.293,8.293 11,12.586 	"/>
</g>
</svg>
