<?xml version="1.0" encoding="utf-8"?>
<!-- Generator: Adobe Illustrator 24.1.3, SVG Export Plug-In . SVG Version: 6.00 Build 0)  -->
<svg version="1.1" id="Design_here" xmlns="http://www.w3.org/2000/svg" xmlns:xlink="http://www.w3.org/1999/xlink" x="0px"
	 y="0px" viewBox="0 0 24 24" style="enable-background:new 0 0 24 24;" xml:space="preserve">
<path d="M12,2.96L4,5.246v7.667c0,2.255,1.096,4.385,2.932,5.697l3.907,2.79c0.347,0.248,0.754,0.372,1.162,0.372
	s0.814-0.124,1.162-0.372l3.906-2.79C18.904,17.298,20,15.168,20,12.912V5.246L12,2.96z M18,11h-5V5.326l5,1.429V11z M11,5.326V11H6
	V6.754L11,5.326z M8.094,16.981C6.807,16.062,6.033,14.578,6.005,13H11v6.057L8.094,16.981z M15.906,16.981L13,19.057V13h4.995
	C17.967,14.578,17.193,16.062,15.906,16.981z"/>
</svg>
