<?xml version="1.0" encoding="utf-8"?>
<!-- Generator: Adobe Illustrator 24.1.3, SVG Export Plug-In . SVG Version: 6.00 Build 0)  -->
<svg version="1.1" id="Design_here" xmlns="http://www.w3.org/2000/svg" xmlns:xlink="http://www.w3.org/1999/xlink" x="0px"
	 y="0px" viewBox="0 0 24 24" style="enable-background:new 0 0 24 24;" xml:space="preserve">
<path d="M12,2.96L4,5.246v7.667c0,2.256,1.096,4.386,2.932,5.697l3.906,2.79c0.348,0.248,0.755,0.372,1.162,0.372
	s0.814-0.124,1.162-0.372l3.906-2.79C18.904,17.298,20,15.168,20,12.912V5.246L12,2.96z M12,19.771l-3.402-2.43
	C9.519,16.485,10.734,16,12,16s2.481,0.485,3.402,1.341L12,19.771z M9.5,11.5C9.5,10.122,10.621,9,12,9s2.5,1.122,2.5,2.5
	S13.379,14,12,14S9.5,12.878,9.5,11.5z M18,12.912c0,1.141-0.399,2.233-1.094,3.108c-0.532-0.523-1.138-0.954-1.797-1.281
	c0.854-0.819,1.391-1.966,1.391-3.24C16.5,9.019,14.481,7,12,7s-4.5,2.019-4.5,4.5c0,1.274,0.537,2.42,1.391,3.24
	c-0.659,0.327-1.265,0.757-1.797,1.281C6.399,15.145,6,14.053,6,12.912V6.754l6-1.714l6,1.714V12.912z"/>
</svg>
