<?xml version="1.0" encoding="utf-8"?>
<!-- Generator: Adobe Illustrator 24.1.3, SVG Export Plug-In . SVG Version: 6.00 Build 0)  -->
<svg version="1.1" id="Design_here" xmlns="http://www.w3.org/2000/svg" xmlns:xlink="http://www.w3.org/1999/xlink" x="0px"
	 y="0px" viewBox="0 0 24 24" style="enable-background:new 0 0 24 24;" xml:space="preserve">
<g>
	<path d="M12,2.96L4,5.246v7.667c0,2.255,1.096,4.385,2.932,5.697l3.907,2.79c0.347,0.248,0.754,0.372,1.162,0.372
		s0.814-0.124,1.162-0.372l3.906-2.79l0,0C18.904,17.297,20,15.167,20,12.912V5.246L12,2.96z M18,12.912
		c0,1.611-0.783,3.132-2.094,4.069l0,0L12,19.771l-3.906-2.79C6.783,16.044,6,14.523,6,12.912V6.754l6-1.714l6,1.714V12.912z"/>
	<polygon points="9.171,7.757 7.757,9.171 10.586,12 7.757,14.829 9.171,16.243 12,13.414 14.829,16.243 16.243,14.829 13.414,12 
		16.243,9.171 14.829,7.757 12,10.586 	"/>
</g>
</svg>
