<svg xmlns="http://www.w3.org/2000/svg" width="24" height="24" viewBox="0 0 24 24">
  <g>
    <path d="M15.816,5a2.982,2.982,0,0,0-5.632,0H3V7h7.184a2.982,2.982,0,0,0,5.632,0H21V5ZM13,7a1,1,0,1,1,1-1A1,1,0,0,1,13,7Z"/>
    <path d="M7,9a3,3,0,0,0-2.816,2H3v2H4.184a2.982,2.982,0,0,0,5.632,0H21V11H9.816A3,3,0,0,0,7,9Zm0,4a1,1,0,1,1,1-1A1,1,0,0,1,7,13Z"/>
    <path d="M16,15a3,3,0,0,0-2.816,2H3v2H13.184a2.982,2.982,0,0,0,5.632,0H21V17H18.816A3,3,0,0,0,16,15Zm0,4a1,1,0,1,1,1-1A1,1,0,0,1,16,19Z"/>
  </g>
</svg>
