<svg xmlns="http://www.w3.org/2000/svg" width="24" height="24" viewBox="0 0 24 24">
  <g>
    <path d="M9,11A3,3,0,0,0,7,8.184V3H5V8.184a2.982,2.982,0,0,0,0,5.632V21H7V13.816A3,3,0,0,0,9,11ZM6,12a1,1,0,1,1,1-1A1,1,0,0,1,6,12Z"/>
    <path d="M13,14.184V3H11V14.184a2.982,2.982,0,0,0,0,5.632V21h2V19.816a2.982,2.982,0,0,0,0-5.632ZM12,18a1,1,0,1,1,1-1A1,1,0,0,1,12,18Z"/>
    <path d="M21,8a3,3,0,0,0-2-2.816V3H17V5.184a2.982,2.982,0,0,0,0,5.632V21h2V10.816A3,3,0,0,0,21,8ZM18,9a1,1,0,1,1,1-1A1,1,0,0,1,18,9Z"/>
  </g>
</svg>
