<svg xmlns="http://www.w3.org/2000/svg" width="24" height="24" viewBox="0 0 24 24">
  <path d="M12,1.976,1.924,4.215,2,5.09c.107,1.175,1.139,11.54,4.441,13.742A52.689,52.689,0,0,0,11.553,21.9l.447.223.447-.223a52.689,52.689,0,0,0,5.108-3.063C20.857,16.63,21.889,6.265,22,5.09l.08-.875ZM19.263,10H13V4.247l6.915,1.536C19.771,7.067,19.551,8.542,19.263,10ZM11,4.247V10H4.737c-.288-1.458-.508-2.933-.652-4.217ZM5.184,12H11v7.311c-.853-.491-2.035-1.2-3.445-2.143C6.6,16.529,5.793,14.436,5.184,12Zm11.261,5.168c-1.41.94-2.592,1.652-3.445,2.143V12h5.816C18.207,14.436,17.4,16.529,16.445,17.168Z"/>
</svg>
