<svg xmlns="http://www.w3.org/2000/svg" width="24" height="24" viewBox="0 0 24 24">
  <path d="M22.075,4.215,12,1.976,4.955,3.541,3.707,2.293,2.293,3.707l.348.349-.716.159L2,5.09c.107,1.175,1.139,11.54,4.441,13.742A52.833,52.833,0,0,0,11.553,21.9l.447.223.447-.223a52.946,52.946,0,0,0,5.025-3.009l2.821,2.821,1.414-1.414L18.834,17.42C21.129,13.834,21.9,6.1,22,5.09ZM12,19.87c-.74-.4-2.35-1.3-4.445-2.7C5.791,15.992,4.547,9.9,4.085,5.783l.232-.051,11.711,11.71C14.139,18.681,12.69,19.5,12,19.87Zm5.4-3.881L6.631,5.217,12,4.024l7.915,1.759C19.542,9.109,18.658,13.718,17.4,15.989Z"/>
</svg>
