<svg xmlns="http://www.w3.org/2000/svg" width="24" height="24" viewBox="0 0 24 24">
  <path d="M19.447,12.105c-.872-.435-1.691-.821-2.447-1.163V5H15V2H9V5H7v5.942c-.756.342-1.575.728-2.447,1.163l-.776.389.274.822c.085.254,2.1,6.249,4.242,8.391L8.586,22h6.828l.293-.293c2.143-2.142,4.157-8.137,4.242-8.391l.274-.822ZM11,4h2V5H11ZM9,7h6v3.076c-1.6-.661-2.612-1-2.684-1.025L12,8.946l-.316.105c-.072.024-1.083.364-2.684,1.025Zm5.558,13H9.442a15.608,15.608,0,0,1-1.835-3.166L12,15.077l4.393,1.757A15.608,15.608,0,0,1,14.558,20Zm2.629-5L12,12.923,6.813,15c-.22-.544-.417-1.057-.576-1.492A61.163,61.163,0,0,1,12,11.059a61.163,61.163,0,0,1,5.763,2.447C17.6,13.941,17.407,14.454,17.187,15Z"/>
</svg>
