<?xml version="1.0" encoding="UTF-8"?>
<svg id="Layer_3" data-name="Layer 3" xmlns="http://www.w3.org/2000/svg" viewBox="0 0 36 36">
  <defs>
    <style>
      .cls-1 {
        fill: #231f20;
        stroke-width: 0px;
      }
    </style>
  </defs>
  <path class="cls-1" d="m26.249,3h-12.498c-2.068,0-3.751,1.683-3.751,3.751v18.497c0,2.068,1.683,3.751,3.751,3.751h12.498c2.068,0,3.751-1.683,3.751-3.751V6.751c0-2.068-1.683-3.751-3.751-3.751Zm1.751,22.249c0,.966-.785,1.751-1.751,1.751h-12.498c-.966,0-1.751-.786-1.751-1.751V6.751c0-.966.786-1.751,1.751-1.751h12.498c.966,0,1.751.786,1.751,1.751v18.497Z"/>
  <path class="cls-1" d="m26,31h-13.239c-2.625,0-4.761-2.136-4.761-4.761V7c0-.552-.448-1-1-1s-1,.448-1,1v19.239c0,3.728,3.033,6.761,6.761,6.761h13.239c.553,0,1-.448,1-1s-.447-1-1-1Z"/>
  <path class="cls-1" d="m24,8h-8c-.552,0-1,.448-1,1s.448,1,1,1h8c.553,0,1-.448,1-1s-.447-1-1-1Z"/>
  <path class="cls-1" d="m24,13h-8c-.552,0-1,.448-1,1s.448,1,1,1h8c.553,0,1-.448,1-1s-.447-1-1-1Z"/>
  <path class="cls-1" d="m20,18h-4c-.552,0-1,.448-1,1s.448,1,1,1h4c.553,0,1-.448,1-1s-.447-1-1-1Z"/>
</svg>