<?xml version="1.0" encoding="UTF-8"?>
<svg id="Layer_3" data-name="Layer 3" xmlns="http://www.w3.org/2000/svg" viewBox="0 0 36 36">
  <defs>
    <style>
      .cls-1 {
        stroke-width: 0px;
      }
    </style>
  </defs>
  <path class="cls-1" d="m28.394,11h-3.394v-3.249c0-2.068-1.683-3.751-3.751-3.751H7.751c-2.068,0-3.751,1.683-3.751,3.751v10.498c0,1.812,1.29,3.326,3,3.676v3.075c0,.382.218.73.561.898.14.068.29.102.439.102.218,0,.435-.071.614-.211l3.386-2.634v1.396c0,1.988,1.618,3.606,3.606,3.606h7.337l4.601,3.578c.18.14.396.211.614.211.149,0,.3-.033.439-.102.343-.168.561-.517.561-.898v-2.871c1.623-.352,2.842-1.798,2.842-3.524v-9.945c0-1.988-1.618-3.606-3.606-3.606Zm-15.865,9.211l-3.528,2.744v-1.955c0-.553-.447-1-1-1h-.249c-.966,0-1.751-.785-1.751-1.751V7.751c0-.966.785-1.751,1.751-1.751h13.498c.966,0,1.751.785,1.751,1.751v10.498c0,.966-.785,1.751-1.751,1.751h-8.106c-.223,0-.438.074-.614.211Zm17.472,4.341c0,.886-.721,1.606-1.606,1.606h-.235c-.553,0-1,.447-1,1v1.744l-3.258-2.533c-.176-.137-.392-.211-.614-.211h-7.68c-.886,0-1.606-.721-1.606-1.606v-2.552h7.249c2.068,0,3.751-1.683,3.751-3.751v-5.249h3.394c.886,0,1.606.721,1.606,1.606v9.945Z"/>
</svg>