<?xml version="1.0" encoding="utf-8"?>
<!-- Generator: Adobe Illustrator 24.1.3, SVG Export Plug-In . SVG Version: 6.00 Build 0)  -->
<svg version="1.1" id="Design_here" xmlns="http://www.w3.org/2000/svg" xmlns:xlink="http://www.w3.org/1999/xlink" x="0px"
	 y="0px" viewBox="0 0 24 24" style="enable-background:new 0 0 24 24;" xml:space="preserve">
<g>
	<polygon points="12,11 14,11 14,8 17,8 17,6 14,6 14,3 12,3 12,6 9,6 9,8 12,8 	"/>
	<path d="M17,16H8.387l0.334-1h10.033l2.208-7.725l-1.924-0.55L17.246,13H8.744l-3-10H3v2h1.256l2.695,8.984l-0.708,2.125
		C4.956,16.446,4,17.609,4,19c0,1.654,1.346,3,3,3s3-1.346,3-3c0-0.352-0.072-0.686-0.184-1h4.369C14.072,18.314,14,18.648,14,19
		c0,1.654,1.346,3,3,3s3-1.346,3-3S18.654,16,17,16z M8,19c0,0.551-0.449,1-1,1s-1-0.449-1-1s0.449-1,1-1S8,18.449,8,19z M17,20
		c-0.552,0-1-0.449-1-1s0.448-1,1-1s1,0.449,1,1S17.552,20,17,20z"/>
</g>
</svg>
