<?xml version="1.0" encoding="UTF-8"?>
<svg id="Layer_3" data-name="Layer 3" xmlns="http://www.w3.org/2000/svg" viewBox="0 0 36 36">
  <defs>
    <style>
      .cls-1 {
        fill: #231f20;
        stroke-width: 0px;
      }
    </style>
  </defs>
  <path class="cls-1" d="m24.69,3h-13.381c-2.376,0-4.31,1.934-4.31,4.31v24.69c0,.377.212.722.548.892.336.173.74.139,1.044-.085l4.806-3.524,3.942,3.469c.377.332.943.332,1.32,0l3.942-3.469,4.806,3.524c.175.128.383.193.592.193.154,0,.31-.035.452-.108.336-.17.548-.515.548-.892V7.31c0-2.376-1.934-4.31-4.31-4.31Zm2.31,27.026l-3.862-2.833c-.379-.276-.9-.254-1.252.056l-3.886,3.419-3.886-3.419c-.188-.165-.424-.249-.66-.249-.207,0-.415.064-.592.193l-3.862,2.833V7.31c0-1.273,1.036-2.31,2.31-2.31h13.381c1.273,0,2.31,1.036,2.31,2.31v22.717Z"/>
  <path class="cls-1" d="m18.857,15h-1.715c-.63,0-1.143-.513-1.143-1.143s.513-1.144,1.143-1.144h3c.553,0,1-.447,1-1s-.447-1-1-1h-1.143v-.714c0-.553-.447-1-1-1s-1,.447-1,1v.728c-1.665.076-3,1.445-3,3.129,0,1.732,1.41,3.143,3.143,3.143h1.715c.63,0,1.143.513,1.143,1.143s-.513,1.144-1.143,1.144h-3c-.553,0-1,.447-1,1s.447,1,1,1h1.143v.714c0,.553.447,1,1,1s1-.447,1-1v-.728c1.665-.076,3-1.445,3-3.129,0-1.732-1.41-3.143-3.143-3.143Z"/>
</svg>