<?xml version="1.0" encoding="UTF-8"?>
<svg id="Layer_3" data-name="Layer 3" xmlns="http://www.w3.org/2000/svg" viewBox="0 0 36 36">
  <defs>
    <style>
      .cls-1 {
        fill: #231f20;
        stroke-width: 0px;
      }
    </style>
  </defs>
  <path class="cls-1" d="m32.781,17.375l-4-5c-.19-.237-.478-.375-.781-.375h-4v-4.209c0-1.539-1.252-2.791-2.79-2.791H5.79c-1.538,0-2.79,1.252-2.79,2.791v17.419c0,1.539,1.252,2.791,2.79,2.791h.352c.447,1.72,1.999,3,3.858,3s3.411-1.28,3.858-3h8.284c.447,1.72,1.999,3,3.858,3s3.411-1.28,3.858-3h2.142c.553,0,1-.448,1-1v-9c0-.227-.077-.447-.219-.625Zm-27.781,7.834V7.791c0-.436.354-.791.79-.791h15.42c.436,0,.79.354.79.791v18.209h-8.142c-.447-1.72-1.999-3-3.858-3s-3.411,1.28-3.858,3h-.352c-.436,0-.79-.354-.79-.791Zm5,3.791c-1.103,0-2-.897-2-2s.897-2,2-2,2,.897,2,2-.897,2-2,2Zm16,0c-1.103,0-2-.897-2-2s.897-2,2-2,2,.897,2,2-.897,2-2,2Zm5-3h-1.142c-.447-1.72-1.999-3-3.858-3-.732,0-1.409.212-2,.556v-9.556h3.52l3.48,4.351v7.649Z"/>
</svg>