<?xml version="1.0" encoding="UTF-8"?>
<svg id="Layer_3" data-name="Layer 3" xmlns="http://www.w3.org/2000/svg" viewBox="0 0 36 36">
  <defs>
    <style>
      .cls-1 {
        fill: #231f20;
        stroke-width: 0px;
      }
    </style>
  </defs>
  <path class="cls-1" d="m18,17c3.86,0,7-3.141,7-7s-3.14-7-7-7-7,3.141-7,7,3.14,7,7,7Zm0-12c2.757,0,5,2.243,5,5s-2.243,5-5,5-5-2.243-5-5,2.243-5,5-5Z"/>
  <path class="cls-1" d="m30.602,28.794c-1.463-5.767-6.645-9.794-12.602-9.794s-11.139,4.027-12.602,9.794c-.255,1.008-.033,2.059.609,2.885.653.84,1.637,1.321,2.698,1.321h18.588c1.062,0,2.045-.481,2.698-1.321.643-.826.865-1.877.609-2.885Zm-2.188,1.657c-.271.349-.68.549-1.12.549H8.706c-.44,0-.848-.2-1.12-.549-.261-.336-.352-.761-.25-1.165,1.238-4.879,5.623-8.286,10.663-8.286s9.425,3.407,10.663,8.286c.103.404.012.829-.25,1.165Z"/>
</svg>