<?xml version="1.0" encoding="UTF-8"?>
<svg id="Layer_3" data-name="Layer 3" xmlns="http://www.w3.org/2000/svg" viewBox="0 0 36 36">
  <defs>
    <style>
      .cls-1 {
        fill: #231f20;
        stroke-width: 0px;
      }
    </style>
  </defs>
  <path class="cls-1" d="m31,12.5c0-1.93-1.57-3.5-3.5-3.5h-3.056c.345-.591.556-1.268.556-2,0-2.206-1.794-4-4-4-1.2,0-2.266.542-3,1.382-.734-.84-1.8-1.382-3-1.382-2.206,0-4,1.794-4,4,0,.732.212,1.409.556,2h-3.056c-1.93,0-3.5,1.57-3.5,3.5,0,1.391.822,2.585,2,3.149v13.477c0,2.136,1.738,3.874,3.874,3.874h14.252c2.136,0,3.874-1.738,3.874-3.874v-13.477c1.178-.564,2-1.758,2-3.149Zm-10-7.5c1.103,0,2,.897,2,2s-.897,2-2,2h-2v-2c0-1.103.897-2,2-2Zm-8,2c0-1.103.897-2,2-2s2,.897,2,2v2h-2c-1.103,0-2-.897-2-2Zm-4,22.126v-13.126h6v15h-4.126c-1.033,0-1.874-.841-1.874-1.874Zm8,1.874v-15h2v15h-2Zm10-1.874c0,1.033-.841,1.874-1.874,1.874h-4.126v-15h6v13.126Zm.5-15.126H8.5c-.827,0-1.5-.673-1.5-1.5s.673-1.5,1.5-1.5h19c.827,0,1.5.673,1.5,1.5s-.673,1.5-1.5,1.5Z"/>
</svg>