<?xml version="1.0" encoding="UTF-8"?>
<svg id="Layer_3" data-name="Layer 3" xmlns="http://www.w3.org/2000/svg" viewBox="0 0 36 36">
  <defs>
    <style>
      .cls-1 {
        fill: #231f20;
        stroke-width: 0px;
      }
    </style>
  </defs>
  <path class="cls-1" d="m25.979,6.038c-2.551-2.274-5.978-3.355-9.407-2.955-5.35.619-9.641,4.762-10.435,10.075-.612,4.105.873,8.172,3.976,10.877,2.416,2.107,4.692,4.846,6.959,8.371l.085.133c.184.287.501.46.842.461h0c.34,0,.657-.173.841-.459l.547-.851c2.036-3.168,4.121-5.637,6.372-7.546,2.695-2.285,4.24-5.618,4.24-9.144,0-3.419-1.465-6.686-4.021-8.962Zm-1.513,16.581c-2.298,1.949-4.42,4.422-6.475,7.549-2.123-3.139-4.279-5.646-6.564-7.64-2.585-2.254-3.823-5.647-3.312-9.074.649-4.351,4.303-7.877,8.687-8.384.406-.047.811-.07,1.211-.07,2.459,0,4.78.878,6.636,2.532,2.129,1.897,3.351,4.62,3.351,7.469,0,2.938-1.288,5.714-3.533,7.619Z"/>
  <path class="cls-1" d="m21.081,11.186c-.448-.32-1.072-.216-1.395.233l-5,7c-.321.449-.217,1.074.232,1.395.176.125.379.186.58.186.312,0,.619-.146.814-.419l5-7c.321-.449.217-1.074-.232-1.395Z"/>
  <circle class="cls-1" cx="15.5" cy="12" r="1"/>
  <circle class="cls-1" cx="20.5" cy="19" r="1"/>
</svg>