<?xml version="1.0" encoding="UTF-8"?>
<svg id="Layer_3" data-name="Layer 3" xmlns="http://www.w3.org/2000/svg" viewBox="0 0 36 36">
  <defs>
    <style>
      .cls-1 {
        fill: #231f20;
        stroke-width: 0px;
      }
    </style>
  </defs>
  <path class="cls-1" d="m30.707,15.293L18.707,3.293c-.391-.391-1.023-.391-1.414,0L5.293,15.293c-.286.286-.372.716-.217,1.09s.52.617.924.617h3v12.708c0,1.815,1.477,3.292,3.292,3.292h11.417c1.815,0,3.292-1.477,3.292-3.292v-12.708h3c.404,0,.769-.243.924-.617s.069-.804-.217-1.09Zm-4.707-.293c-.552,0-1,.447-1,1v13.708c0,.712-.58,1.292-1.292,1.292h-11.417c-.712,0-1.292-.58-1.292-1.292v-13.708c0-.553-.448-1-1-1h-1.586l9.586-9.586,9.586,9.586h-1.586Z"/>
  <path class="cls-1" d="m17,14v.728c-1.665.077-3,1.445-3,3.129,0,1.732,1.41,3.143,3.143,3.143h1.714c.63,0,1.143.513,1.143,1.143s-.513,1.144-1.143,1.144h-3c-.552,0-1,.447-1,1s.448,1,1,1h1.143v.714c0,.553.448,1,1,1s1-.447,1-1v-.728c1.665-.077,3-1.445,3-3.129,0-1.732-1.41-3.143-3.143-3.143h-1.714c-.63,0-1.143-.513-1.143-1.143s.513-1.144,1.143-1.144h3c.552,0,1-.447,1-1s-.448-1-1-1h-1.143v-.714c0-.553-.448-1-1-1s-1,.447-1,1Z"/>
</svg>