<?xml version="1.0" encoding="UTF-8"?>
<svg id="Layer_3" data-name="Layer 3" xmlns="http://www.w3.org/2000/svg" viewBox="0 0 36 36">
  <defs>
    <style>
      .cls-1 {
        stroke-width: 0px;
      }
    </style>
  </defs>
  <path class="cls-1" d="m18,3c-8.271,0-15,6.729-15,15,0,2.368.563,4.715,1.633,6.812l-1.607,6.964c-.077.336.023.688.268.932.189.189.445.293.707.293.075,0,.15-.009.225-.025l6.964-1.607c2.097,1.069,4.443,1.633,6.812,1.633,8.271,0,15-6.729,15-15S26.272,3,18,3Zm0,28c-2.165,0-4.308-.543-6.197-1.569-.147-.08-.312-.121-.478-.121-.075,0-.15.009-.225.025l-5.767,1.331,1.331-5.767c.055-.237.021-.487-.096-.702-1.026-1.89-1.569-4.032-1.569-6.197,0-7.168,5.832-13,13-13s13,5.832,13,13-5.832,13-13,13Z"/>
  <path class="cls-1" d="m18.857,17h-1.715c-.63,0-1.143-.513-1.143-1.143s.513-1.144,1.143-1.144h3c.553,0,1-.447,1-1s-.447-1-1-1h-1.143v-.714c0-.553-.447-1-1-1s-1,.447-1,1v.728c-1.665.076-3,1.445-3,3.129,0,1.732,1.41,3.143,3.143,3.143h1.715c.63,0,1.143.513,1.143,1.143s-.513,1.144-1.143,1.144h-3c-.553,0-1,.447-1,1s.447,1,1,1h1.143v.714c0,.553.447,1,1,1s1-.447,1-1v-.728c1.665-.076,3-1.445,3-3.129,0-1.732-1.41-3.143-3.143-3.143Z"/>
  <path class="cls-1" d="m18,7c-6.065,0-11,4.935-11,11s4.935,11,11,11,11-4.935,11-11-4.935-11-11-11Zm0,20c-4.963,0-9-4.037-9-9s4.037-9,9-9,9,4.037,9,9-4.037,9-9,9Z"/>
</svg>