<?xml version="1.0" encoding="UTF-8"?>
<svg id="Layer_3" data-name="Layer 3" xmlns="http://www.w3.org/2000/svg" viewBox="0 0 36 36">
  <defs>
    <style>
      .cls-1 {
        fill: #231f20;
        stroke-width: 0px;
      }
    </style>
  </defs>
  <path class="cls-1" d="m32.964,15.588c-.174-1.207-.945-2.21-2.062-2.684-.684-.29-1.038-1.077-.807-1.792.378-1.168.124-2.418-.68-3.343-.796-.915-1.979-1.334-3.174-1.126-.734.132-1.438-.326-1.628-1.061-.308-1.188-1.19-2.102-2.362-2.444-1.164-.339-2.393-.049-3.285.779-.551.512-1.381.511-1.932,0-.892-.83-2.121-1.12-3.285-.779-1.172.343-2.055,1.256-2.362,2.444-.19.735-.891,1.192-1.628,1.061-1.19-.208-2.377.211-3.173,1.126-.804.925-1.059,2.174-.68,3.343.231.714-.123,1.501-.807,1.792-1.117.473-1.888,1.477-2.062,2.683-.175,1.21.283,2.396,1.225,3.17.577.474.699,1.331.277,1.951-.689,1.012-.795,2.282-.284,3.396.506,1.104,1.526,1.846,2.729,1.983.735.084,1.292.736,1.27,1.486-.037,1.229.557,2.356,1.588,3.016,1.022.654,2.279.722,3.363.181.67-.335,1.468-.098,1.854.552.626,1.05,1.726,1.677,2.943,1.677s2.317-.627,2.943-1.677c.386-.65,1.183-.887,1.854-.552,1.085.541,2.342.474,3.363-.181,1.031-.66,1.625-1.787,1.588-3.017-.022-.75.535-1.402,1.27-1.486,1.202-.137,2.222-.878,2.729-1.983.511-1.114.405-2.383-.284-3.396-.422-.62-.3-1.477.277-1.952.941-.774,1.399-1.959,1.224-3.169Zm-2.494,1.624c-1.392,1.144-1.676,3.13-.661,4.622.291.428.336.965.12,1.437-.215.47-.63.772-1.137.83-1.76.201-3.096,1.753-3.042,3.533.016.52-.234.995-.667,1.272-.43.275-.937.303-1.393.075-1.591-.792-3.552-.213-4.465,1.319-.53.891-1.918.891-2.448,0-.636-1.068-1.782-1.673-2.957-1.673-.51,0-1.026.114-1.508.354-.455.228-.963.2-1.393-.075-.433-.277-.683-.752-.667-1.271.054-1.78-1.282-3.333-3.042-3.534-.507-.058-.922-.36-1.137-.83-.216-.471-.171-1.008.12-1.437,1.015-1.492.731-3.479-.66-4.622-.396-.326-.589-.826-.515-1.338.075-.516.389-.927.863-1.128,1.63-.691,2.478-2.558,1.929-4.25-.16-.495-.053-1.023.287-1.414.336-.387.818-.557,1.317-.469,1.748.309,3.465-.803,3.912-2.53.131-.507.491-.88.987-1.025.488-.144.986-.025,1.362.324,1.305,1.213,3.35,1.213,4.654,0,.376-.349.873-.466,1.362-.324.497.145.856.519.987,1.025.447,1.727,2.169,2.839,3.912,2.53.504-.088.982.083,1.318.469.339.391.447.919.287,1.413-.549,1.692.298,3.559,1.928,4.25.475.201.789.613.864,1.128.074.512-.119,1.013-.515,1.338Z"/>
  <path class="cls-1" d="m18.857,17h-1.714c-.63,0-1.143-.513-1.143-1.143s.513-1.143,1.143-1.143h3c.552,0,1-.448,1-1s-.448-1-1-1h-1.143v-.714c0-.552-.448-1-1-1s-1,.448-1,1v.729c-1.665.077-3,1.444-3,3.128,0,1.733,1.41,3.143,3.143,3.143h1.714c.63,0,1.143.513,1.143,1.143s-.513,1.143-1.143,1.143h-3c-.552,0-1,.448-1,1s.448,1,1,1h1.143v.714c0,.552.448,1,1,1s1-.448,1-1v-.729c1.665-.077,3-1.444,3-3.128,0-1.733-1.41-3.143-3.143-3.143Z"/>
</svg>