<?xml version="1.0" encoding="UTF-8"?>
<svg id="Layer_3" data-name="Layer 3" xmlns="http://www.w3.org/2000/svg" viewBox="0 0 36 36">
  <defs>
    <style>
      .cls-1 {
        fill: #231f20;
        stroke-width: 0px;
      }
    </style>
  </defs>
  <path class="cls-1" d="m28.493,3.13c-.314-.178-.698-.173-1.008.013l-4.485,2.691-4.485-2.691c-.316-.19-.713-.19-1.029,0l-4.485,2.691-4.485-2.691c-.31-.186-.694-.191-1.008-.013-.313.177-.507.51-.507.87v28c0,.36.193.693.507.87.313.178.698.173,1.008-.013l4.485-2.691,4.485,2.691c.316.19.713.19,1.029,0l4.485-2.691,4.485,2.691c.158.095.337.143.515.143.17,0,.34-.043.493-.13.313-.177.507-.51.507-.87V4c0-.36-.193-.693-.507-.87Zm-1.493,27.104l-3.485-2.091c-.316-.19-.713-.19-1.029,0l-4.485,2.691-4.485-2.691c-.158-.095-.337-.143-.515-.143s-.356.047-.515.143l-3.485,2.091V5.766l3.485,2.091c.316.19.713.19,1.029,0l4.485-2.691,4.485,2.691c.316.19.713.19,1.029,0l3.485-2.091v24.468Z"/>
  <path class="cls-1" d="m18.857,17h-1.715c-.63,0-1.143-.513-1.143-1.143s.513-1.143,1.143-1.143h3c.553,0,1-.448,1-1s-.447-1-1-1h-1.143v-.714c0-.552-.447-1-1-1s-1,.448-1,1v.729c-1.665.076-3,1.444-3,3.128,0,1.733,1.41,3.143,3.143,3.143h1.715c.63,0,1.143.513,1.143,1.143s-.513,1.143-1.143,1.143h-3c-.553,0-1,.448-1,1s.447,1,1,1h1.143v.714c0,.552.447,1,1,1s1-.448,1-1v-.729c1.665-.076,3-1.444,3-3.128,0-1.733-1.41-3.143-3.143-3.143Z"/>
</svg>