<?xml version="1.0" encoding="UTF-8"?>
<svg id="Layer_3" data-name="Layer 3" xmlns="http://www.w3.org/2000/svg" viewBox="0 0 36 36">
  <defs>
    <style>
      .cls-1 {
        fill: #231f20;
        stroke-width: 0px;
      }
    </style>
  </defs>
  <path class="cls-1" d="m32.773,9.366c-.19-.231-.474-.366-.773-.366H9.971l-.988-5.188c-.09-.472-.502-.812-.982-.812h-4c-.552,0-1,.447-1,1s.448,1,1,1h3.172l3.307,17.359c.402,2.109,2.252,3.641,4.4,3.641h11.27c2.128,0,3.975-1.515,4.392-3.601l2.44-12.203c.059-.294-.018-.599-.207-.83Zm-4.194,12.641c-.231,1.155-1.253,1.993-2.431,1.993h-11.27c-1.188,0-2.213-.848-2.435-2.016l-2.092-10.984h20.429l-2.201,11.007Z"/>
  <path class="cls-1" d="m14,27c-1.654,0-3,1.346-3,3s1.346,3,3,3,3-1.346,3-3-1.346-3-3-3Zm0,4c-.551,0-1-.448-1-1s.449-1,1-1,1,.448,1,1-.449,1-1,1Z"/>
  <path class="cls-1" d="m27,27c-1.654,0-3,1.346-3,3s1.346,3,3,3,3-1.346,3-3-1.346-3-3-3Zm0,4c-.552,0-1-.448-1-1s.448-1,1-1,1,.448,1,1-.448,1-1,1Z"/>
  <path class="cls-1" d="m17.419,21.813c.176.126.379.187.58.187.312,0,.62-.146.815-.419l5-7c.321-.449.217-1.074-.232-1.395-.448-.321-1.073-.217-1.395.232l-5,7c-.321.449-.217,1.074.233,1.395Z"/>
  <circle class="cls-1" cx="18" cy="14" r="1"/>
  <circle class="cls-1" cx="23" cy="21" r="1"/>
</svg>