<?xml version="1.0" encoding="UTF-8"?>
<svg id="Layer_3" data-name="Layer 3" xmlns="http://www.w3.org/2000/svg" viewBox="0 0 36 36">
  <defs>
    <style>
      .cls-1 {
        fill: #231f20;
        stroke-width: 0px;
      }
    </style>
  </defs>
  <path class="cls-1" d="m27,32H9c-.552,0-1-.447-1-1v-13.434l-4.515-2.709c-.462-.277-.622-.872-.359-1.343l5-9c.176-.317.511-.515.874-.515h5.142c.456,0,.854.309.968.749.343,1.325,1.531,2.251,2.89,2.251s2.547-.926,2.89-2.251c.114-.44.513-.749.968-.749h5.142c.363,0,.698.197.874.515l5,9c.262.471.103,1.065-.359,1.343l-4.515,2.709v13.434c0,.553-.448,1-1,1Zm-17-2h16v-13c0-.352.184-.677.485-.857l4.171-2.502-4.245-7.641h-3.843c-.784,1.799-2.565,3-4.568,3s-3.785-1.201-4.568-3h-3.843l-4.245,7.641,4.171,2.502c.301.181.485.506.485.857v13Z"/>
</svg>