<?xml version="1.0" encoding="UTF-8"?>
<svg id="Layer_3" data-name="Layer 3" xmlns="http://www.w3.org/2000/svg" viewBox="0 0 36 36">
  <defs>
    <style>
      .cls-1 {
        fill: #231f20;
        stroke-width: 0px;
      }
    </style>
  </defs>
  <path class="cls-1" d="m25.513,3h-15.025c-1.923,0-3.488,1.564-3.488,3.487v23.025c0,1.923,1.564,3.487,3.488,3.487h15.025c1.923,0,3.487-1.564,3.487-3.487V6.487c0-1.923-1.564-3.487-3.487-3.487Zm-15.025,2h15.025c.82,0,1.487.667,1.487,1.487v20.513H9V6.487c0-.82.667-1.487,1.488-1.487Zm15.025,26h-15.025c-.82,0-1.488-.667-1.488-1.487v-.513h18v.513c0,.82-.667,1.487-1.487,1.487Z"/>
  <path class="cls-1" d="m17.143,19h1.714c.63,0,1.143.513,1.143,1.143s-.513,1.144-1.143,1.144h-3c-.552,0-1,.447-1,1s.448,1,1,1h1.143v.714c0,.553.448,1,1,1s1-.447,1-1v-.728c1.665-.077,3-1.445,3-3.129,0-1.732-1.41-3.143-3.143-3.143h-1.714c-.63,0-1.143-.513-1.143-1.143s.513-1.144,1.143-1.144h3c.553,0,1-.447,1-1s-.447-1-1-1h-1.143v-.714c0-.553-.448-1-1-1s-1,.447-1,1v.728c-1.665.077-3,1.445-3,3.129,0,1.732,1.41,3.143,3.143,3.143Z"/>
  <path class="cls-1" d="m16,8h4c.553,0,1-.447,1-1s-.447-1-1-1h-4c-.552,0-1,.447-1,1s.448,1,1,1Z"/>
</svg>