<?xml version="1.0" encoding="UTF-8"?>
<svg id="Layer_3" data-name="Layer 3" xmlns="http://www.w3.org/2000/svg" viewBox="0 0 36 36">
  <defs>
    <style>
      .cls-1 {
        fill: #231f20;
        stroke-width: 0px;
      }
    </style>
  </defs>
  <path class="cls-1" d="m25.513,3h-15.025c-1.923,0-3.487,1.564-3.487,3.487v23.025c0,1.923,1.564,3.487,3.487,3.487h15.025c1.923,0,3.487-1.564,3.487-3.487V6.487c0-1.923-1.564-3.487-3.487-3.487Zm-15.025,2h15.025c.82,0,1.487.667,1.487,1.487v20.513H9V6.487c0-.82.667-1.487,1.487-1.487Zm15.025,26h-15.025c-.82,0-1.487-.667-1.487-1.487v-.513h18v.513c0,.82-.667,1.487-1.487,1.487Z"/>
  <path class="cls-1" d="m16,8h4c.553,0,1-.447,1-1s-.447-1-1-1h-4c-.553,0-1,.447-1,1s.447,1,1,1Z"/>
  <path class="cls-1" d="m19.687,13.919l-5,7c-.321.449-.217,1.074.232,1.395.176.126.379.187.58.187.312,0,.619-.146.814-.419l5-7c.321-.449.217-1.074-.232-1.395-.448-.321-1.072-.217-1.395.232Z"/>
  <circle class="cls-1" cx="15.5" cy="14.5" r="1"/>
  <circle class="cls-1" cx="20.5" cy="21.5" r="1"/>
</svg>