<?xml version="1.0" encoding="UTF-8"?>
<svg id="Layer_3" data-name="Layer 3" xmlns="http://www.w3.org/2000/svg" viewBox="0 0 36 36">
  <defs>
    <style>
      .cls-1 {
        fill: #231f20;
        stroke-width: 0px;
      }
    </style>
  </defs>
  <path class="cls-1" d="m28.911,7H7.089c-2.255,0-4.089,1.834-4.089,4.089v13.821c0,2.255,1.834,4.089,4.089,4.089h21.821c2.255,0,4.089-1.834,4.089-4.089v-13.821c0-2.255-1.834-4.089-4.089-4.089Zm-2.82,20H9.91c-.423-2.507-2.403-4.486-4.91-4.91v-8.181c2.507-.423,4.486-2.403,4.91-4.91h16.181c.423,2.507,2.403,4.486,4.91,4.91v8.181c-2.507.423-4.486,2.403-4.91,4.91Zm4.91-15.911v.769c-1.399-.364-2.494-1.459-2.858-2.858h.769c1.152,0,2.089.938,2.089,2.089Zm-23.911-2.089h.769c-.364,1.399-1.459,2.494-2.858,2.858v-.769c0-1.152.938-2.089,2.089-2.089Zm-2.089,15.911v-.769c1.399.364,2.494,1.459,2.858,2.858h-.769c-1.152,0-2.089-.938-2.089-2.089Zm23.911,2.089h-.769c.364-1.399,1.459-2.494,2.858-2.858v.769c0,1.152-.938,2.089-2.089,2.089Z"/>
  <path class="cls-1" d="m18.857,17h-1.714c-.63,0-1.143-.513-1.143-1.143s.513-1.143,1.143-1.143h3c.552,0,1-.448,1-1s-.448-1-1-1h-1.143v-.714c0-.552-.448-1-1-1s-1,.448-1,1v.729c-1.665.077-3,1.444-3,3.128,0,1.733,1.41,3.143,3.143,3.143h1.714c.63,0,1.143.513,1.143,1.143s-.513,1.143-1.143,1.143h-3c-.552,0-1,.448-1,1s.448,1,1,1h1.143v.714c0,.552.448,1,1,1s1-.448,1-1v-.729c1.665-.077,3-1.444,3-3.128,0-1.733-1.41-3.143-3.143-3.143Z"/>
</svg>