<?xml version="1.0" encoding="UTF-8"?>
<svg id="Layer_3" data-name="Layer 3" xmlns="http://www.w3.org/2000/svg" viewBox="0 0 36 36">
  <defs>
    <style>
      .cls-1 {
        fill: #231f20;
        stroke-width: 0px;
      }
    </style>
  </defs>
  <path class="cls-1" d="m29.506,15h-1.13l-7.122-6.232c.154-.394.247-.82.247-1.268,0-1.93-1.57-3.5-3.5-3.5s-3.5,1.57-3.5,3.5c0,.448.092.874.247,1.268l-7.122,6.232h-1.13c-1.927,0-3.494,1.567-3.494,3.494v10.012c0,1.927,1.567,3.494,3.494,3.494h23.012c1.927,0,3.494-1.567,3.494-3.494v-10.012c0-1.927-1.567-3.494-3.494-3.494Zm-11.506-9c.827,0,1.5.673,1.5,1.5s-.673,1.5-1.5,1.5-1.5-.673-1.5-1.5.673-1.5,1.5-1.5Zm-2.021,4.347c.572.407,1.267.653,2.021.653s1.449-.245,2.021-.653l5.317,4.653h-14.677l5.317-4.653Zm15.021,18.159c0,.824-.67,1.494-1.494,1.494H6.494c-.824,0-1.494-.67-1.494-1.494v-10.012c0-.824.67-1.494,1.494-1.494h23.012c.824,0,1.494.67,1.494,1.494v10.012Z"/>
</svg>