<?xml version="1.0" encoding="UTF-8"?>
<svg id="Layer_3" data-name="Layer 3" xmlns="http://www.w3.org/2000/svg" viewBox="0 0 36 36">
  <defs>
    <style>
      .cls-1 {
        fill: #231f20;
        stroke-width: 0px;
      }
    </style>
  </defs>
  <path class="cls-1" d="m29.668,3.515c-.836-.561-1.888-.67-2.82-.289l-13.044,5.316h-3.941c-2.681,0-4.862,2.182-4.862,4.862v4.232c0,2.385,1.731,4.365,4,4.774v7.589c0,1.654,1.346,3,3,3s3-1.346,3-3v-7.014l11.849,4.83c.367.15.754.224,1.139.224.59,0,1.175-.174,1.681-.513.834-.562,1.332-1.496,1.332-2.502V6.017c0-1.006-.498-1.94-1.332-2.502ZM7,17.637v-4.232c0-1.578,1.284-2.862,2.862-2.862h3.138v9.956h-3.138c-1.578,0-2.862-1.283-2.862-2.861Zm5,13.363c-.552,0-1-.448-1-1v-7.502h2v7.502c0,.552-.448,1-1,1Zm17-5.976c0,.344-.163.65-.448.842-.284.192-.631.227-.948.098l-12.604-5.138v-10.612l12.603-5.137c.319-.127.665-.093.949.098.285.191.448.498.448.842v19.008Z"/>
</svg>