<?xml version="1.0" encoding="UTF-8"?>
<svg id="Layer_3" data-name="Layer 3" xmlns="http://www.w3.org/2000/svg" viewBox="0 0 36 36">
  <defs>
    <style>
      .cls-1 {
        fill: #231f20;
        stroke-width: 0px;
      }
    </style>
  </defs>
  <path class="cls-1" d="m32,17h-1v-2.992c0-1.659-1.35-3.008-3.008-3.008h-8.992v-5c0-.552-.448-1-1-1H7c-2.206,0-4,1.794-4,4v20c0,2.206,1.794,4,4,4h20.992c1.659,0,3.008-1.35,3.008-3.008v-2.992h1c.552,0,1-.448,1-1v-8c0-.552-.448-1-1-1ZM7,7h10v4H7c-1.103,0-2-.897-2-2s.897-2,2-2Zm22,22.992c0,.556-.452,1.008-1.008,1.008H7c-1.103,0-2-.897-2-2V12.444c.591.345,1.268.556,2,.556h20.992c.556,0,1.008.452,1.008,1.008v2.992h-5c-2.757,0-5,2.243-5,5s2.243,5,5,5h5v2.992Zm2-4.992h-7c-1.654,0-3-1.346-3-3s1.346-3,3-3h7v6Z"/>
  <circle class="cls-1" cx="24" cy="22" r="1"/>
</svg>