<?xml version="1.0" encoding="UTF-8"?>
<svg id="Layer_3" data-name="Layer 3" xmlns="http://www.w3.org/2000/svg" viewBox="0 0 36 36">
  <defs>
    <style>
      .cls-1 {
        fill: #231f20;
        stroke-width: 0px;
      }
    </style>
  </defs>
  <path class="cls-1" d="m30.577,27.302l-1.581-17.393c-.047-.515-.479-.91-.996-.91h-3.08c-.488-3.387-3.401-6-6.92-6s-6.432,2.613-6.92,6h-3.08c-.517,0-.949.395-.996.91l-1.581,17.392c-.132,1.458.358,2.915,1.345,3.997.988,1.082,2.394,1.702,3.858,1.702h14.748c1.464,0,2.87-.62,3.858-1.702.987-1.082,1.478-2.538,1.345-3.996ZM18,5c2.414,0,4.434,1.721,4.899,4h-9.798c.465-2.279,2.484-4,4.899-4Zm9.755,24.95c-.618.677-1.464,1.05-2.381,1.05h-14.748c-.917,0-1.763-.373-2.381-1.05-.619-.677-.914-1.553-.83-2.467l1.498-16.483h18.174l1.498,16.483c.083.913-.211,1.789-.83,2.466Z"/>
  <path class="cls-1" d="m23,26h-10c-.552,0-1,.448-1,1s.448,1,1,1h10c.552,0,1-.448,1-1s-.448-1-1-1Z"/>
</svg>