<?xml version="1.0" encoding="UTF-8"?>
<svg id="Layer_3" data-name="Layer 3" xmlns="http://www.w3.org/2000/svg" viewBox="0 0 36 36">
  <defs>
    <style>
      .cls-1 {
        fill: #231f20;
        stroke-width: 0px;
      }
    </style>
  </defs>
  <path class="cls-1" d="m33,15.5c0-1.93-1.57-3.5-3.5-3.5h-1.946l-4.706-7.53c-.293-.468-.908-.611-1.378-.318-.468.293-.61.91-.317,1.378l4.044,6.47h-14.392l4.044-6.47c.292-.468.15-1.085-.318-1.378-.467-.293-1.084-.15-1.378.318l-4.706,7.53h-1.946c-1.93,0-3.5,1.57-3.5,3.5,0,1.448.884,2.693,2.141,3.225l2.443,10.585c.366,1.583,1.756,2.69,3.382,2.69h14.069c1.626,0,3.017-1.106,3.383-2.69l2.442-10.585c1.257-.532,2.141-1.777,2.141-3.225Zm-6.532,13.36c-.154.671-.744,1.14-1.434,1.14h-14.069c-.688,0-1.278-.469-1.433-1.14l-2.275-9.86h21.485l-2.275,9.86Zm3.032-11.86H6.5c-.827,0-1.5-.673-1.5-1.5s.673-1.5,1.5-1.5h23c.827,0,1.5.673,1.5,1.5s-.673,1.5-1.5,1.5Z"/>
  <path class="cls-1" d="m15,21c-.552,0-1,.448-1,1v5c0,.552.448,1,1,1s1-.448,1-1v-5c0-.552-.448-1-1-1Z"/>
  <path class="cls-1" d="m21,21c-.553,0-1,.448-1,1v5c0,.552.447,1,1,1s1-.448,1-1v-5c0-.552-.447-1-1-1Z"/>
</svg>