<?xml version="1.0" encoding="UTF-8"?>
<svg id="Layer_3" data-name="Layer 3" xmlns="http://www.w3.org/2000/svg" viewBox="0 0 36 36">
  <defs>
    <style>
      .cls-1 {
        fill: #231f20;
        stroke-width: 0px;
      }
    </style>
  </defs>
  <path class="cls-1" d="m30.707,15.293L18.707,3.293c-.391-.391-1.023-.391-1.414,0L5.293,15.293c-.286.286-.372.716-.217,1.09s.52.617.924.617h3v12.708c0,1.815,1.477,3.292,3.292,3.292h11.417c1.815,0,3.292-1.477,3.292-3.292v-12.708h3c.404,0,.769-.243.924-.617s.069-.804-.217-1.09Zm-4.707-.293c-.552,0-1,.447-1,1v13.708c0,.712-.58,1.292-1.292,1.292h-11.417c-.712,0-1.292-.58-1.292-1.292v-13.708c0-.553-.448-1-1-1h-1.586l9.586-9.586,9.586,9.586h-1.586Z"/>
  <path class="cls-1" d="m14.919,25.813c.176.126.379.187.58.187.312,0,.62-.146.815-.419l5-7c.321-.449.217-1.074-.233-1.395-.449-.322-1.074-.218-1.395.232l-5,7c-.321.449-.217,1.074.233,1.395Z"/>
  <circle class="cls-1" cx="15.5" cy="18" r="1"/>
  <circle class="cls-1" cx="20.5" cy="25" r="1"/>
</svg>