<?xml version="1.0" encoding="UTF-8"?>
<svg id="Layer_3" data-name="Layer 3" xmlns="http://www.w3.org/2000/svg" viewBox="0 0 36 36">
  <defs>
    <style>
      .cls-1 {
        fill: #231f20;
        stroke-width: 0px;
      }
    </style>
  </defs>
  <path class="cls-1" d="m26.808,33h-4.078c-1.493,0-2.754-1.069-3-2.542l-1.729-10.376-1.729,10.376c-.246,1.473-1.507,2.542-3,2.542h-4.078c-.841,0-1.653-.354-2.226-.969-.573-.616-.868-1.45-.808-2.289l1.844-25.813c.038-.523.473-.929.998-.929h18c.524,0,.96.405.998.929l1.844,25.813c.06.839-.234,1.673-.808,2.289-.573.615-1.385.969-2.226.969Zm-8.808-17.677c.715,0,1.32.513,1.438,1.219l2.265,13.588c.084.504.516.87,1.027.87h4.078c.292,0,.563-.118.762-.332s.297-.492.276-.783l-1.777-24.885H9.931l-1.777,24.885h0c-.021.291.077.569.276.783s.47.332.762.332h4.078c.511,0,.943-.366,1.027-.87l2.265-13.588c.118-.706.722-1.219,1.438-1.219Zm-10.844,14.49h.01-.01Z"/>
</svg>