<?xml version="1.0" encoding="UTF-8"?>
<svg id="Layer_3" data-name="Layer 3" xmlns="http://www.w3.org/2000/svg" viewBox="0 0 36 36">
  <defs>
    <style>
      .cls-1 {
        fill: #231f20;
        stroke-width: 0px;
      }
    </style>
  </defs>
  <path class="cls-1" d="m24.69,3h-13.381c-2.376,0-4.31,1.934-4.31,4.31v24.69c0,.377.212.722.548.892.337.17.74.138,1.044-.086l4.806-3.524,3.942,3.469c.377.332.943.332,1.32,0l3.942-3.469,4.806,3.524c.175.128.383.194.592.194.154,0,.31-.036.452-.108.336-.17.548-.515.548-.892V7.31c0-2.376-1.934-4.31-4.31-4.31Zm2.31,27.026l-3.862-2.833c-.379-.278-.9-.254-1.252.055l-3.886,3.419-3.886-3.419c-.188-.165-.424-.249-.66-.249-.207,0-.415.064-.592.194l-3.862,2.833V7.31c0-1.274,1.036-2.31,2.31-2.31h13.381c1.273,0,2.31,1.036,2.31,2.31v22.716Z"/>
  <path class="cls-1" d="m23,9h-10c-.553,0-1,.448-1,1s.447,1,1,1h10c.553,0,1-.448,1-1s-.447-1-1-1Z"/>
  <path class="cls-1" d="m23,14h-10c-.553,0-1,.448-1,1s.447,1,1,1h10c.553,0,1-.448,1-1s-.447-1-1-1Z"/>
  <path class="cls-1" d="m18,19h-5c-.553,0-1,.448-1,1s.447,1,1,1h5c.553,0,1-.448,1-1s-.447-1-1-1Z"/>
</svg>