<svg xmlns="http://www.w3.org/2000/svg" width="24" height="24" viewBox="0 0 24 24">
  <path d="M21.5,12.016l0-.016a.5.5,0,0,0-.05-.211l0-.013-2-4A.5.5,0,0,0,19,7.5H17.5v-1H19a.5.5,0,0,0,.5-.5V3a.5.5,0,0,0-.5-.5H5a.5.5,0,0,0-.5.5V6a.5.5,0,0,0,.5.5H6.5v1H5a.5.5,0,0,0-.447.276l-2,4,0,.013A.5.5,0,0,0,2.5,12l0,.016v.015a3.5,3.5,0,0,0,2,3.118V21a.5.5,0,0,0,.5.5H19a.5.5,0,0,0,.5-.5V15.149a3.5,3.5,0,0,0,2-3.118ZM20.191,11.5h-4.8l-.75-3h4.051Zm-6.581-3,.75,3H9.64l.75-3Zm.839,4a2.5,2.5,0,0,1-4.9,0ZM5.5,3.5h13v2H5.5Zm2,3h9v1h-9Zm-2.191,2H9.36l-.75,3h-4.8Zm-1.758,4h4.9a2.5,2.5,0,0,1-4.9,0Zm6.949,8V18.633A1.134,1.134,0,0,1,11.633,17.5h.734A1.134,1.134,0,0,1,13.5,18.633V20.5Zm8,0h-4V18.633A2.136,2.136,0,0,0,12.367,16.5h-.734A2.136,2.136,0,0,0,9.5,18.633V20.5h-4V15.449A3.443,3.443,0,0,0,6,15.5a3.488,3.488,0,0,0,3-1.726,3.47,3.47,0,0,0,6,0A3.488,3.488,0,0,0,18,15.5a3.443,3.443,0,0,0,.5-.051Zm-.5-6a2.5,2.5,0,0,1-2.449-2h4.9A2.5,2.5,0,0,1,18,14.5Z"/>
</svg>
