<?xml version="1.0" encoding="UTF-8"?>
<svg id="Layer_3" data-name="Layer 3" xmlns="http://www.w3.org/2000/svg" viewBox="0 0 36 36">
  <defs>
    <style>
      .cls-1 {
        fill: #231f20;
        stroke-width: 0px;
      }
    </style>
  </defs>
  <path class="cls-1" d="m32.773,9.366c-.19-.231-.474-.366-.773-.366h-7c-.553,0-1,.447-1,1s.447,1,1,1h5.78l-2.201,11.007c-.231,1.155-1.253,1.993-2.431,1.993h-11.27c-1.188,0-2.213-.848-2.435-2.016l-2.092-10.984h5.648c.552,0,1-.447,1-1s-.448-1-1-1h-6c-.01,0-.018.005-.028.006l-.989-5.193c-.09-.472-.502-.812-.982-.812h-4c-.552,0-1,.447-1,1s.448,1,1,1h3.172l3.307,17.359c.402,2.109,2.252,3.641,4.4,3.641h11.27c2.128,0,3.975-1.515,4.392-3.601l2.44-12.203c.059-.294-.018-.599-.207-.83Z"/>
  <path class="cls-1" d="m14,27c-1.654,0-3,1.346-3,3s1.346,3,3,3,3-1.346,3-3-1.346-3-3-3Zm0,4c-.551,0-1-.448-1-1s.449-1,1-1,1,.448,1,1-.449,1-1,1Z"/>
  <path class="cls-1" d="m27,27c-1.654,0-3,1.346-3,3s1.346,3,3,3,3-1.346,3-3-1.346-3-3-3Zm0,4c-.552,0-1-.448-1-1s.448-1,1-1,1,.448,1,1-.448,1-1,1Z"/>
  <path class="cls-1" d="m15.793,14.293c-.391.391-.391,1.023,0,1.414l4,4c.195.195.451.293.707.293s.512-.098.707-.293l4-4c.391-.391.391-1.023,0-1.414s-1.023-.391-1.414,0l-2.293,2.293V7c0-.553-.447-1-1-1s-1,.447-1,1v9.586l-2.293-2.293c-.391-.391-1.023-.391-1.414,0Z"/>
</svg>