<svg xmlns="http://www.w3.org/2000/svg" width="24" height="24" viewBox="0 0 24 24">
  <g>
    <path d="M18.5,7.961A.5.5,0,0,0,18,7.5H15.5V6a3.5,3.5,0,0,0-7,0V7.5H6a.5.5,0,0,0-.5.461L4.584,19.885A1.5,1.5,0,0,0,6.08,21.5H17.92a1.5,1.5,0,0,0,1.495-1.615ZM9.5,6a2.5,2.5,0,0,1,5,0V7.5h-5Zm8.787,14.34a.5.5,0,0,1-.367.16H6.08a.5.5,0,0,1-.5-.538L6.463,8.5H8.5V11a.5.5,0,0,0,1,0V8.5h5V11a.5.5,0,0,0,1,0V8.5h2.037l.882,11.462A.5.5,0,0,1,18.287,20.34Z"/>
    <path d="M15,14.5H9a.5.5,0,0,0-.5.5v2a.5.5,0,0,0,.5.5h6a.5.5,0,0,0,.5-.5V15A.5.5,0,0,0,15,14.5Zm-.5,2h-5v-1h5Z"/>
  </g>
</svg>
