<svg xmlns="http://www.w3.org/2000/svg" width="24" height="24" viewBox="0 0 24 24">
  <g>
    <path d="M20.39,10.687A.5.5,0,0,0,20,10.5H16.309L12.447,2.776a.521.521,0,0,0-.894,0L7.691,10.5H4a.5.5,0,0,0-.488.608l2,9A.5.5,0,0,0,6,20.5H18a.5.5,0,0,0,.488-.392l2-9A.5.5,0,0,0,20.39,10.687ZM12,4.118,15.191,10.5H8.809ZM17.6,19.5H6.4l-1.778-8H19.377Z"/>
    <path d="M12,12.5a.5.5,0,0,0-.5.5v5a.5.5,0,0,0,1,0V13A.5.5,0,0,0,12,12.5Z"/>
    <path d="M7.9,12.51a.5.5,0,0,0-.392.588l1,5A.5.5,0,0,0,9,18.5a.475.475,0,0,0,.1-.01A.5.5,0,0,0,9.49,17.9l-1-5A.5.5,0,0,0,7.9,12.51Z"/>
    <path d="M15.51,12.9l-1,5a.5.5,0,0,0,.392.588.475.475,0,0,0,.1.01.5.5,0,0,0,.489-.4l1-5a.5.5,0,0,0-.392-.588A.5.5,0,0,0,15.51,12.9Z"/>
  </g>
</svg>
