<?xml version="1.0" encoding="UTF-8"?>
<svg id="Layer_3" data-name="Layer 3" xmlns="http://www.w3.org/2000/svg" viewBox="0 0 36 36">
  <defs>
    <style>
      .cls-1 {
        fill: #231f20;
        stroke-width: 0px;
      }
    </style>
  </defs>
  <path class="cls-1" d="m28.911,7H7.089c-2.255,0-4.089,1.834-4.089,4.089v13.822c0,2.255,1.834,4.089,4.089,4.089h21.822c2.255,0,4.089-1.834,4.089-4.089v-13.822c0-2.255-1.834-4.089-4.089-4.089Zm-21.822,2h21.822c1.151,0,2.089.938,2.089,2.089v.911H5v-.911c0-1.151.938-2.089,2.089-2.089Zm21.822,18H7.089c-1.151,0-2.089-.938-2.089-2.089v-10.911h26v10.911c0,1.151-.938,2.089-2.089,2.089Z"/>
  <path class="cls-1" d="m13,23h-5c-.553,0-1,.447-1,1s.447,1,1,1h5c.553,0,1-.447,1-1s-.447-1-1-1Z"/>
</svg>