<?xml version="1.0" encoding="UTF-8"?>
<svg id="Layer_3" data-name="Layer 3" xmlns="http://www.w3.org/2000/svg" viewBox="0 0 36 36">
  <defs>
    <style>
      .cls-1 {
        fill: #231f20;
        stroke-width: 0px;
      }
    </style>
  </defs>
  <path class="cls-1" d="m32.773,9.366c-.19-.232-.474-.366-.773-.366H10c-.01,0-.02,0-.03,0l-.988-5.188c-.09-.472-.502-.813-.982-.813h-4c-.552,0-1,.448-1,1s.448,1,1,1h3.172l3.307,17.359c.402,2.109,2.252,3.641,4.4,3.641h11.269c2.127,0,3.975-1.514,4.392-3.6l2.441-12.204c.059-.294-.017-.599-.207-.83Zm-4.195,12.641c-.231,1.155-1.253,1.993-2.431,1.993h-11.269c-1.188,0-2.213-.847-2.435-2.015l-2.092-10.985h20.429l-2.202,11.007Z"/>
  <path class="cls-1" d="m14,27c-1.654,0-3,1.346-3,3s1.346,3,3,3,3-1.346,3-3-1.346-3-3-3Zm0,4c-.551,0-1-.449-1-1s.449-1,1-1,1,.449,1,1-.449,1-1,1Z"/>
  <path class="cls-1" d="m27,27c-1.654,0-3,1.346-3,3s1.346,3,3,3,3-1.346,3-3-1.346-3-3-3Zm0,4c-.551,0-1-.449-1-1s.449-1,1-1,1,.449,1,1-.449,1-1,1Z"/>
  <path class="cls-1" d="m18,21c.552,0,1-.448,1-1v-5c0-.552-.448-1-1-1s-1,.448-1,1v5c0,.552.448,1,1,1Z"/>
  <path class="cls-1" d="m23,21c.552,0,1-.448,1-1v-5c0-.552-.448-1-1-1s-1,.448-1,1v5c0,.552.448,1,1,1Z"/>
</svg>