<?xml version="1.0" encoding="UTF-8"?>
<svg id="Layer_3" data-name="Layer 3" xmlns="http://www.w3.org/2000/svg" viewBox="0 0 36 36">
  <defs>
    <style>
      .cls-1 {
        fill: #231f20;
        stroke-width: 0px;
      }
    </style>
  </defs>
  <path class="cls-1" d="m29.07,26.74l-2.07-6.007v-4.733c0-3.909-2.51-7.235-6-8.475v-1.525c0-1.654-1.346-3-3-3s-3,1.346-3,3v1.525c-3.49,1.24-6,4.565-6,8.475v4.574l-2.285,6.285c-.261.717-.156,1.518.282,2.143s1.154.998,1.917.998h5.228c.447,1.72,2,3,3.858,3s3.411-1.28,3.858-3h5.06c.8,0,1.535-.401,1.968-1.073.424-.657.491-1.471.185-2.187ZM17,7v-1c0-.551.449-1,1-1s1,.449,1,1v1h-2Zm1,24c-.737,0-1.375-.405-1.722-1h3.444c-.347.595-.985,1-1.722,1Zm9.205-3.156c-.038.059-.125.156-.287.156H8.914c-.154,0-.241-.091-.279-.145-.038-.054-.094-.167-.041-.312l2.406-6.617v-4.926c0-3.86,3.14-7,7-7s7,3.14,7,7v5.068l2.193,6.362.035.088c.066.147.014.267-.023.325Z"/>
</svg>