<?xml version="1.0" encoding="UTF-8"?>
<svg id="Layer_3" data-name="Layer 3" xmlns="http://www.w3.org/2000/svg" viewBox="0 0 36 36">
  <defs>
    <style>
      .cls-1 {
        fill: #231f20;
        stroke-width: 0px;
      }
    </style>
  </defs>
  <path class="cls-1" d="m18,8c-3.86,0-7,3.141-7,7s3.14,7,7,7,7-3.141,7-7-3.14-7-7-7Zm0,12c-2.757,0-5-2.243-5-5s2.243-5,5-5,5,2.243,5,5-2.243,5-5,5Z"/>
  <path class="cls-1" d="m25.98,6.038c-2.553-2.274-5.985-3.354-9.407-2.955-5.351.619-9.641,4.762-10.435,10.075-.613,4.105.873,8.172,3.976,10.877,2.418,2.109,4.694,4.848,6.96,8.373l.085.133c.184.286.5.459.841.459h0c.34,0,.657-.173.841-.46l.546-.85c2.037-3.169,4.121-5.637,6.373-7.546,2.694-2.285,4.239-5.618,4.239-9.145,0-3.419-1.465-6.686-4.02-8.962Zm-1.513,16.581c-2.298,1.948-4.419,4.421-6.476,7.549-2.121-3.138-4.277-5.646-6.564-7.641-2.586-2.254-3.824-5.646-3.312-9.074.649-4.351,4.303-7.876,8.686-8.384.406-.047.811-.07,1.211-.07,2.459,0,4.78.879,6.637,2.532,2.129,1.897,3.35,4.619,3.35,7.469,0,2.938-1.288,5.715-3.533,7.619Z"/>
</svg>