<?xml version="1.0" encoding="UTF-8"?>
<svg id="Layer_3" data-name="Layer 3" xmlns="http://www.w3.org/2000/svg" viewBox="0 0 36 36">
  <defs>
    <style>
      .cls-1 {
        fill: #231f20;
        stroke-width: 0px;
      }
    </style>
  </defs>
  <path class="cls-1" d="m32,24h-1v-15.08c0-2.162-1.759-3.92-3.92-3.92H8.92c-2.161,0-3.92,1.758-3.92,3.92v15.08h-1c-.553,0-1,.448-1,1v.856c0,2.836,2.308,5.144,5.144,5.144h19.713c2.836,0,5.144-2.308,5.144-5.144v-.856c0-.552-.447-1-1-1ZM7,8.92c0-1.059.861-1.92,1.92-1.92h18.16c1.059,0,1.92.861,1.92,1.92v15.08H7v-15.08Zm20.856,20.08H8.144c-1.686,0-3.065-1.333-3.141-3h25.994c-.075,1.667-1.455,3-3.141,3Z"/>
  <path class="cls-1" d="m18.786,14.5h-1.572c-.531,0-.964-.433-.964-.964s.433-.964.964-.964h2.75c.553,0,1-.448,1-1s-.447-1-1-1h-.964v-.571c0-.552-.447-1-1-1s-1,.448-1,1v.593c-1.533.112-2.75,1.381-2.75,2.943,0,1.635,1.33,2.964,2.964,2.964h1.572c.531,0,.964.433.964.964s-.433.964-.964.964h-2.75c-.553,0-1,.448-1,1s.447,1,1,1h.964v.571c0,.552.447,1,1,1s1-.448,1-1v-.593c1.533-.112,2.75-1.381,2.75-2.943,0-1.635-1.33-2.964-2.964-2.964Z"/>
</svg>