<?xml version="1.0" encoding="UTF-8"?>
<svg id="Layer_3" data-name="Layer 3" xmlns="http://www.w3.org/2000/svg" viewBox="0 0 36 36">
  <defs>
    <style>
      .cls-1 {
        fill: #231f20;
        stroke-width: 0px;
      }
    </style>
  </defs>
  <path class="cls-1" d="m28.911,7H7.089c-2.255,0-4.089,1.834-4.089,4.089v13.821c0,2.255,1.834,4.089,4.089,4.089h21.822c2.255,0,4.089-1.834,4.089-4.089v-13.821c0-2.255-1.834-4.089-4.089-4.089Zm2.089,17.911c0,1.152-.938,2.089-2.089,2.089H7.089c-1.151,0-2.089-.938-2.089-2.089v-13.821c0-1.152.938-2.089,2.089-2.089h21.822c1.151,0,2.089.938,2.089,2.089v13.821Z"/>
  <path class="cls-1" d="m26,10c-.553,0-1,.448-1,1v1.077c0,.552.447,1,1,1s1-.448,1-1v-1.077c0-.552-.447-1-1-1Z"/>
  <path class="cls-1" d="m26,14.308c-.553,0-1,.448-1,1v1.077c0,.552.447,1,1,1s1-.448,1-1v-1.077c0-.552-.447-1-1-1Z"/>
  <path class="cls-1" d="m26,18.615c-.553,0-1,.448-1,1v1.077c0,.552.447,1,1,1s1-.448,1-1v-1.077c0-.552-.447-1-1-1Z"/>
  <path class="cls-1" d="m26,22.923c-.553,0-1,.448-1,1v1.077c0,.552.447,1,1,1s1-.448,1-1v-1.077c0-.552-.447-1-1-1Z"/>
  <path class="cls-1" d="m14.857,17h-1.715c-.63,0-1.143-.513-1.143-1.143s.513-1.143,1.143-1.143h3c.553,0,1-.448,1-1s-.447-1-1-1h-1.143v-.714c0-.552-.447-1-1-1s-1,.448-1,1v.729c-1.665.076-3,1.444-3,3.128,0,1.733,1.41,3.143,3.143,3.143h1.715c.63,0,1.143.513,1.143,1.143s-.513,1.143-1.143,1.143h-3c-.553,0-1,.448-1,1s.447,1,1,1h1.143v.714c0,.552.447,1,1,1s1-.448,1-1v-.729c1.665-.076,3-1.444,3-3.128,0-1.733-1.41-3.143-3.143-3.143Z"/>
</svg>