<?xml version="1.0" encoding="UTF-8"?>
<svg id="Layer_3" data-name="Layer 3" xmlns="http://www.w3.org/2000/svg" viewBox="0 0 36 36">
  <defs>
    <style>
      .cls-1 {
        fill: #231f20;
        stroke-width: 0px;
      }
    </style>
  </defs>
  <path class="cls-1" d="m25.98,6.038c-2.553-2.274-5.981-3.35-9.408-2.955-5.35.619-9.641,4.762-10.435,10.075-.612,4.105.873,8.172,3.976,10.877,2.416,2.107,4.693,4.847,6.959,8.371l.085.133c.184.287.501.461.842.461h0c.34,0,.657-.173.841-.459l.547-.851c2.036-3.168,4.12-5.636,6.372-7.546,2.695-2.285,4.24-5.618,4.24-9.145,0-3.419-1.465-6.686-4.02-8.962Zm-1.514,16.581c-2.298,1.949-4.42,4.422-6.475,7.549-2.123-3.139-4.278-5.646-6.564-7.641-2.585-2.254-3.823-5.646-3.312-9.074.649-4.351,4.303-7.876,8.687-8.384.406-.047.81-.07,1.21-.07,2.46,0,4.78.879,6.637,2.532,2.13,1.897,3.351,4.619,3.351,7.469,0,2.938-1.288,5.715-3.533,7.619Z"/>
  <path class="cls-1" d="m18.857,14h-1.715c-.63,0-1.143-.513-1.143-1.143s.513-1.144,1.143-1.144h3c.553,0,1-.447,1-1s-.447-1-1-1h-1.143v-.714c0-.553-.447-1-1-1s-1,.447-1,1v.728c-1.665.076-3,1.445-3,3.129,0,1.732,1.41,3.143,3.143,3.143h1.715c.63,0,1.143.513,1.143,1.143s-.513,1.144-1.143,1.144h-3c-.553,0-1,.447-1,1s.447,1,1,1h1.143v.714c0,.553.447,1,1,1s1-.447,1-1v-.728c1.665-.076,3-1.445,3-3.129,0-1.732-1.41-3.143-3.143-3.143Z"/>
</svg>