<?xml version="1.0" encoding="UTF-8"?>
<svg id="Layer_3" data-name="Layer 3" xmlns="http://www.w3.org/2000/svg" viewBox="0 0 36 36">
  <defs>
    <style>
      .cls-1 {
        fill: #231f20;
        stroke-width: 0px;
      }
    </style>
  </defs>
  <path class="cls-1" d="m31,4h-12.007c-.265,0-.52.105-.707.293l-12.849,12.849c-1.913,1.912-1.913,5.024,0,6.936l6.486,6.486c.956.956,2.212,1.434,3.468,1.434s2.512-.478,3.468-1.434l12.849-12.849c.188-.188.293-.442.293-.707V5c0-.552-.448-1-1-1Zm-1,12.593l-12.556,12.556c-1.132,1.132-2.975,1.133-4.108,0l-6.486-6.486c-1.132-1.133-1.132-2.975,0-4.108l12.556-12.556h10.593v10.593Z"/>
  <path class="cls-1" d="m23.795,15.606c1.875,0,3.401-1.526,3.401-3.401s-1.526-3.401-3.401-3.401-3.401,1.526-3.401,3.401,1.526,3.401,3.401,3.401Zm0-4.803c.773,0,1.401.628,1.401,1.401s-.628,1.401-1.401,1.401-1.401-.628-1.401-1.401.628-1.401,1.401-1.401Z"/>
</svg>