<?xml version="1.0" encoding="UTF-8"?>
<svg id="Layer_3" data-name="Layer 3" xmlns="http://www.w3.org/2000/svg" viewBox="0 0 36 36">
  <defs>
    <style>
      .cls-1 {
        fill: #231f20;
        stroke-width: 0px;
      }
    </style>
  </defs>
  <path class="cls-1" d="m32.086,27.672l-6.695-6.696c1.018-1.762,1.609-3.799,1.609-5.976,0-6.617-5.383-12-12-12S3,8.383,3,15s5.383,12,12,12c2.177,0,4.215-.592,5.977-1.61l6.695,6.695c.608.608,1.407.912,2.206.912s1.6-.304,2.208-.912c1.217-1.217,1.217-3.197,0-4.414ZM5,15c0-5.514,4.486-10,10-10s10,4.486,10,10-4.486,10-10,10-10-4.486-10-10Zm25.672,15.671c-.438.438-1.148.437-1.586,0l-6.435-6.436c.576-.478,1.108-1.01,1.586-1.586l6.435,6.436c.437.437.437,1.148,0,1.585Z"/>
</svg>