<?xml version="1.0" encoding="UTF-8"?>
<svg id="Layer_3" data-name="Layer 3" xmlns="http://www.w3.org/2000/svg" viewBox="0 0 36 36">
  <defs>
    <style>
      .cls-1 {
        fill: #231f20;
        stroke-width: 0px;
      }
    </style>
  </defs>
  <path class="cls-1" d="m32.952,22.693c-.17-.525-.732-.816-1.259-.645l-.157.051-2.805-8.415c-.175-.523-.735-.809-1.265-.632l-9,3c-.524.175-.807.741-.632,1.265l2.77,8.308-1.049.338c-.783-1.742-2.526-2.962-4.556-2.962-.203,0-.396.036-.593.06L8.949,6.684c-.165-.495-.681-.778-1.191-.654l-4,1c-.536.134-.861.677-.728,1.213.134.536.679.862,1.213.728l3.102-.775,5.165,15.496c-1.492.866-2.509,2.464-2.509,4.309,0,2.757,2.243,5,5,5s5-2.243,5-5c0-.026-.007-.051-.008-.077l12.314-3.971c.526-.169.814-.733.646-1.259Zm-17.952,8.307c-1.654,0-3-1.346-3-3s1.346-3,3-3,3,1.346,3,3-1.346,3-3,3Zm5.048-13.368l7.103-2.367,2.483,7.447-7.127,2.298-2.459-7.378Z"/>
</svg>