<?xml version="1.0" encoding="UTF-8"?>
<svg id="Layer_3" data-name="Layer 3" xmlns="http://www.w3.org/2000/svg" viewBox="0 0 36 36">
  <defs>
    <style>
      .cls-1 {
        fill: #231f20;
        stroke-width: 0px;
      }
    </style>
  </defs>
  <path class="cls-1" d="m28.911,7H7.089c-2.255,0-4.089,1.834-4.089,4.089v13.822c0,2.255,1.834,4.089,4.089,4.089h21.821c2.255,0,4.089-1.834,4.089-4.089v-13.822c0-2.255-1.834-4.089-4.089-4.089Zm2.089,17.911c0,1.151-.938,2.089-2.089,2.089H7.089c-1.152,0-2.089-.938-2.089-2.089v-13.822c0-1.151.938-2.089,2.089-2.089h21.821c1.152,0,2.089.938,2.089,2.089v13.822Z"/>
  <path class="cls-1" d="m26,10c-.552,0-1,.447-1,1v1.077c0,.553.448,1,1,1s1-.447,1-1v-1.077c0-.553-.448-1-1-1Z"/>
  <path class="cls-1" d="m26,14.308c-.552,0-1,.447-1,1v1.077c0,.553.448,1,1,1s1-.447,1-1v-1.077c0-.553-.448-1-1-1Z"/>
  <path class="cls-1" d="m26,18.615c-.552,0-1,.447-1,1v1.077c0,.553.448,1,1,1s1-.447,1-1v-1.077c0-.553-.448-1-1-1Z"/>
  <path class="cls-1" d="m26,22.923c-.552,0-1,.447-1,1v1.077c0,.553.448,1,1,1s1-.447,1-1v-1.077c0-.553-.448-1-1-1Z"/>
  <path class="cls-1" d="m17.581,13.687c-.449-.322-1.075-.219-1.395.232l-5,7c-.321.449-.217,1.074.233,1.395.176.126.379.187.58.187.312,0,.62-.146.815-.419l5-7c.321-.449.217-1.074-.233-1.395Z"/>
  <circle class="cls-1" cx="12" cy="14.5" r="1"/>
  <circle class="cls-1" cx="17" cy="21.5" r="1"/>
</svg>