<?xml version="1.0" encoding="UTF-8"?>
<svg id="Layer_3" data-name="Layer 3" xmlns="http://www.w3.org/2000/svg" viewBox="0 0 36 36">
  <defs>
    <style>
      .cls-1 {
        fill: #231f20;
        stroke-width: 0px;
      }
    </style>
  </defs>
  <path class="cls-1" d="m28.078,7h-1.078v-1c0-.553-.448-1-1-1s-1,.447-1,1v1h-6v-1c0-.553-.448-1-1-1s-1,.447-1,1v1h-6v-1c0-.553-.448-1-1-1s-1,.447-1,1v1h-1.078c-2.163,0-3.922,1.76-3.922,3.922v16.156c0,2.162,1.76,3.922,3.922,3.922h20.155c2.163,0,3.922-1.76,3.922-3.922V10.922c0-2.162-1.76-3.922-3.922-3.922Zm1.922,20.078c0,1.06-.862,1.922-1.922,1.922H7.922c-1.06,0-1.922-.862-1.922-1.922V10.922c0-1.06.862-1.922,1.922-1.922h1.078v1c0,.553.448,1,1,1s1-.447,1-1v-1h6v1c0,.553.448,1,1,1s1-.447,1-1v-1h6v1c0,.553.448,1,1,1s1-.447,1-1v-1h1.078c1.06,0,1.922.862,1.922,1.922v16.156Z"/>
  <path class="cls-1" d="m18.857,19h-1.714c-.63,0-1.143-.513-1.143-1.143s.513-1.144,1.143-1.144h3c.552,0,1-.447,1-1s-.448-1-1-1h-1.143v-.714c0-.553-.448-1-1-1s-1,.447-1,1v.728c-1.665.077-3,1.445-3,3.129,0,1.732,1.41,3.143,3.143,3.143h1.714c.63,0,1.143.513,1.143,1.143s-.513,1.144-1.143,1.144h-3c-.552,0-1,.447-1,1s.448,1,1,1h1.143v.714c0,.553.448,1,1,1s1-.447,1-1v-.728c1.665-.077,3-1.445,3-3.129,0-1.732-1.41-3.143-3.143-3.143Z"/>
</svg>