<svg xmlns="http://www.w3.org/2000/svg" width="24" height="24" viewBox="0 0 24 24">
  <g>
    <path d="M12,15a3,3,0,1,0,3,3A3,3,0,0,0,12,15Zm0,4a1,1,0,1,1,1-1A1,1,0,0,1,12,19Z"/>
    <path d="M12,11a7.012,7.012,0,0,0-5.217,2.333l1.49,1.334a5,5,0,0,1,7.454,0l1.49-1.334A7.013,7.013,0,0,0,12,11Z"/>
    <path d="M4.145,10.3l1.428,1.4a9,9,0,0,1,12.854,0l1.427-1.4a11,11,0,0,0-15.709,0Z"/>
    <path d="M12,3A14.889,14.889,0,0,0,1.286,7.5L2.714,8.9a13,13,0,0,1,18.572,0l1.428-1.4A14.89,14.89,0,0,0,12,3Z"/>
  </g>
</svg>
