<svg xmlns="http://www.w3.org/2000/svg" width="24" height="24" viewBox="0 0 24 24">
  <polygon points="21.175 12.909 16.542 13.467 14 12 16.542 10.533 21.175 11.091 21.414 9.105 19.428 8.866 21.16 7.866 20.16 6.134 18.428 7.134 19.214 5.295 17.375 4.509 15.542 8.8 13 10.268 13 7.333 15.8 3.6 14.2 2.4 13 4 13 2 11 2 11 4 9.8 2.4 8.2 3.6 11 7.333 11 10.268 8.458 8.8 6.625 4.509 4.786 5.295 5.572 7.134 3.84 6.134 2.84 7.866 4.572 8.866 2.586 9.105 2.825 11.091 7.458 10.533 10 12 7.458 13.467 2.825 12.909 2.586 14.895 4.572 15.134 2.84 16.134 3.84 17.866 5.572 16.866 4.786 18.705 6.625 19.491 8.458 15.2 11 13.732 11 16.667 8.2 20.4 9.8 21.6 11 20 11 22 13 22 13 20 14.2 21.6 15.8 20.4 13 16.667 13 13.732 15.542 15.2 17.375 19.491 19.214 18.705 18.428 16.866 20.16 17.866 21.16 16.134 19.428 15.134 21.414 14.895 21.175 12.909"/>
</svg>
