<svg xmlns="http://www.w3.org/2000/svg" width="24" height="24" viewBox="0 0 24 24">
  <g>
    <path d="M18.418,6.215a6.994,6.994,0,0,0-13.141.85A4.007,4.007,0,0,0,2,11a5.018,5.018,0,0,0,2.5,4.331l1-1.732A3.012,3.012,0,0,1,4,11,1.993,1.993,0,0,1,5.906,8.995l1.026.042.143-.864a4.993,4.993,0,0,1,9.654-.782l.192.563.587.1A2.993,2.993,0,0,1,18.5,13.6l1,1.732a4.993,4.993,0,0,0-1.082-9.116Z"/>
    <rect x="7" y="11" width="2" height="2"/>
    <rect x="11" y="13" width="2" height="2"/>
    <rect x="7" y="15" width="2" height="2"/>
    <rect x="11" y="17" width="2" height="2"/>
    <rect x="7" y="19" width="2" height="2"/>
    <rect x="15" y="11" width="2" height="2"/>
    <rect x="15" y="15" width="2" height="2"/>
    <rect x="15" y="19" width="2" height="2"/>
  </g>
</svg>
