<svg xmlns="http://www.w3.org/2000/svg" width="24" height="24" viewBox="0 0 24 24">
  <path d="M18,22a.994.994,0,0,1-.447-.105L12,19.118,6.447,21.9a1,1,0,0,1-1.4-1.211l1.779-5.338L2.375,11.781A1,1,0,0,1,2.93,10l6.056-.428,2.071-5.906A1,1,0,0,1,12,3h0a1,1,0,0,1,.943.667l2.085,5.908L21.07,10a1,1,0,0,1,.544,1.786L17.06,15.331l1.883,5.336A1,1,0,0,1,18,22ZM5.623,11.817l3,2.4a1,1,0,0,1,.323,1.1l-1.236,3.71,3.841-1.921a1,1,0,0,1,.894,0L16.233,19l-1.3-3.682a1,1,0,0,1,.329-1.122l3.062-2.382-4.092-.29a1,1,0,0,1-.873-.664L12,7.014l-1.347,3.843a1,1,0,0,1-.873.666Z"/>
</svg>
