<svg xmlns="http://www.w3.org/2000/svg" width="24" height="24" viewBox="0 0 24 24">
  <g>
    <path d="M17.854,6.853l.5-.5a.5.5,0,0,0-.708-.708l-.559.56A8.446,8.446,0,0,0,13.5,4.641V3.5H14a.5.5,0,0,0,0-1H10a.5.5,0,0,0,0,1h.5V4.641A8.446,8.446,0,0,0,6.913,6.206l-.559-.56a.49.49,0,0,0-.236-.123.325.325,0,0,0-.043-.008.49.49,0,0,0-.429.131.5.5,0,0,0,0,.708l.5.5a8.5,8.5,0,1,0,11.708,0ZM11.5,4.5v-1h1v1Zm.5,16A7.5,7.5,0,1,1,19.5,13,7.508,7.508,0,0,1,12,20.5Z"/>
    <path d="M16.608,8.421S16.6,8.409,16.6,8.4s-.012-.007-.017-.012a6.487,6.487,0,0,0-9.158,0c0,.005-.012.007-.017.012s-.007.012-.012.017a6.487,6.487,0,0,0,0,9.158s.007.012.012.017.012.007.017.012a6.487,6.487,0,0,0,9.158,0s.012-.007.017-.012.007-.012.012-.017a6.487,6.487,0,0,0,0-9.158ZM17,13.5h.475a5.482,5.482,0,0,1-1.251,3.017l-.335-.335a.5.5,0,1,0-.707.707l.335.335A5.482,5.482,0,0,1,12.5,18.475V18a.5.5,0,0,0-1,0v.475a5.482,5.482,0,0,1-3.017-1.251l.335-.335a.5.5,0,1,0-.707-.707l-.335.335A5.482,5.482,0,0,1,6.525,13.5H7a.5.5,0,0,0,0-1H6.525A5.482,5.482,0,0,1,7.776,9.483l.335.335a.5.5,0,0,0,.707,0,.5.5,0,0,0,0-.707l-.335-.335A5.482,5.482,0,0,1,11.5,7.525V8a.5.5,0,0,0,1,0V7.525a5.482,5.482,0,0,1,3.017,1.251l-.335.335a.5.5,0,0,0,.354.853.494.494,0,0,0,.353-.146l.335-.335A5.482,5.482,0,0,1,17.475,12.5H17a.5.5,0,0,0,0,1Z"/>
    <path d="M12.5,12.793V10a.5.5,0,0,0-1,0v3a.5.5,0,0,0,.146.354l1.5,1.5a.5.5,0,0,0,.708-.708Z"/>
  </g>
</svg>
