<svg xmlns="http://www.w3.org/2000/svg" width="24" height="24" viewBox="0 0 24 24">
  <g>
    <path d="M21,13.25A8.986,8.986,0,0,0,7.116,5.7l-.723-.723A10,10,0,0,1,8.364,3.932L7.636,2.068A11.988,11.988,0,0,0,4.954,3.54L3.707,2.293,2.293,3.707,3.438,4.852a11.978,11.978,0,0,0-1.985,2.67l1.757.956A10.03,10.03,0,0,1,4.85,6.265l.711.71A8.991,8.991,0,0,0,18.275,19.689l2.018,2.018,1.414-1.414-2.159-2.159A8.933,8.933,0,0,0,21,13.25Zm-9,7A6.993,6.993,0,0,1,6.974,8.388l9.888,9.888A6.977,6.977,0,0,1,12,20.25ZM18.1,16.681,8.569,7.155A6.991,6.991,0,0,1,18.1,16.681Z"/>
    <path d="M20.79,8.478l1.757-.956a12.042,12.042,0,0,0-6.183-5.454l-.728,1.864A10.03,10.03,0,0,1,20.79,8.478Z"/>
  </g>
</svg>
