<svg xmlns="http://www.w3.org/2000/svg" width="24" height="24" viewBox="0 0 24 24">
  <g>
    <path d="M18,2H6A2,2,0,0,0,4,4V20a2,2,0,0,0,2,2H18a2,2,0,0,0,2-2V4A2,2,0,0,0,18,2ZM6,20V4H18V20Z"/>
    <rect x="8" y="6" width="2" height="2"/>
    <rect x="11" y="6" width="2" height="2"/>
    <rect x="14" y="6" width="2" height="2"/>
    <rect x="8" y="9" width="2" height="2"/>
    <rect x="11" y="9" width="2" height="2"/>
    <rect x="14" y="9" width="2" height="2"/>
    <rect x="8" y="12" width="2" height="2"/>
    <rect x="11" y="12" width="2" height="2"/>
    <rect x="14" y="12" width="2" height="2"/>
    <rect x="10" y="16" width="4" height="2"/>
  </g>
</svg>
