<svg xmlns="http://www.w3.org/2000/svg" width="24" height="24" viewBox="0 0 24 24">
  <g>
    <path d="M12,4.25a9,9,0,1,0,9,9A9.011,9.011,0,0,0,12,4.25Zm0,16a7,7,0,1,1,7-7A7.008,7.008,0,0,1,12,20.25Z"/>
    <path d="M20.79,8.478l1.757-.956a12.042,12.042,0,0,0-6.183-5.454l-.728,1.864A10.03,10.03,0,0,1,20.79,8.478Z"/>
    <path d="M8.364,3.932,7.636,2.068A12.042,12.042,0,0,0,1.453,7.522l1.757.956A10.03,10.03,0,0,1,8.364,3.932Z"/>
    <polygon points="13 8.25 11 8.25 11 13.664 14.293 16.957 15.707 15.543 13 12.836 13 8.25"/>
  </g>
</svg>
