<svg xmlns="http://www.w3.org/2000/svg" width="24" height="24" viewBox="0 0 24 24">
  <g>
    <path d="M16,2a6.068,6.068,0,0,0-3.528.814C12.2,2.974,12.143,3,12,3s-.2-.026-.472-.186A6.068,6.068,0,0,0,8,2C4.294,2,2,4.6,2,7a13.974,13.974,0,0,0,1.993,6.458A7.494,7.494,0,0,1,5,16c0,1.948,0,6,4,6,1.806,0,2.53-1.537,2.964-2.456L12,19.467l.036.077C12.47,20.463,13.194,22,15,22c4,0,4-4.052,4-6a7.494,7.494,0,0,1,1.007-2.542A13.974,13.974,0,0,0,22,7C22,4.6,19.706,2,16,2Zm2.229,10.542A8.185,8.185,0,0,0,17,16c0,2.71-.3,4-2,4-.456,0-.7-.343-1.154-1.309C13.509,17.978,13.049,17,12,17s-1.509.978-1.846,1.691C9.7,19.657,9.456,20,9,20c-1.7,0-2-1.29-2-4a8.185,8.185,0,0,0-1.229-3.458A12.182,12.182,0,0,1,4,7C4,5.557,5.529,4,8,4a4.178,4.178,0,0,1,2.521.542,2.617,2.617,0,0,0,2.958,0A4.178,4.178,0,0,1,16,4c2.471,0,4,1.557,4,3A12.182,12.182,0,0,1,18.229,12.542Z"/>
    <path d="M12,8a3.469,3.469,0,0,1-2.3-.718l-1.4,1.425A5.311,5.311,0,0,0,12,10a5.311,5.311,0,0,0,3.707-1.293l-1.4-1.425A3.469,3.469,0,0,1,12,8Z"/>
  </g>
</svg>
