<svg xmlns="http://www.w3.org/2000/svg" width="24" height="24" viewBox="0 0 24 24">
  <path d="M12,23a4.986,4.986,0,0,1-3-8.979V4a3,3,0,0,1,6,0V14.021A4.986,4.986,0,0,1,12,23ZM12,3a1,1,0,0,0-1,1V15.13l-.5.289A2.968,2.968,0,0,0,9,18a3,3,0,0,0,6,0,2.968,2.968,0,0,0-1.5-2.581L13,15.13V4A1,1,0,0,0,12,3Z"/>
  <path d="M12,20a2,2,0,1,1,2-2A2,2,0,0,1,12,20Zm0-2h0Z"/>
  <rect x="17" y="4" width="4" height="2"/>
  <rect x="17" y="8" width="4" height="2"/>
  <rect x="17" y="12" width="4" height="2"/>
</svg>
