<svg xmlns="http://www.w3.org/2000/svg" width="24" height="24" viewBox="0 0 24 24">
  <g>
    <path d="M21.9,4.929,19.071,2.1a3,3,0,0,0-4.243,0L8.25,8.678l-.707,3.536L3.514,16.243a3,3,0,0,0,4.243,4.242l4.029-4.028,3.535-.707L21.9,9.172a3,3,0,0,0,0-4.243ZM6.343,19.071a1,1,0,0,1-1.414-1.414L7.05,15.535l1.415,1.414ZM20.485,7.757l-6.15,6.15-3.535.707-.921.921L8.465,14.121l.921-.921.707-3.535,6.149-6.15a1,1,0,0,1,1.415,0l2.828,2.829a1,1,0,0,1,0,1.413Z"/>
    <rect x="14.243" y="6.757" width="4" height="2" transform="translate(-0.728 13.757) rotate(-45)"/>
    <rect x="11.707" y="10.293" width="2" height="2" transform="translate(-4.264 12.293) rotate(-45)"/>
  </g>
</svg>
