<svg xmlns="http://www.w3.org/2000/svg" width="24" height="24" viewBox="0 0 24 24">
  <g>
    <path d="M22,5c0-2.784-7.654-3-10-3S2,2.216,2,5,9.654,8,12,8,22,7.784,22,5ZM12,4a22.492,22.492,0,0,1,7.616,1A22.492,22.492,0,0,1,12,6,22.492,22.492,0,0,1,4.384,5,22.492,22.492,0,0,1,12,4Z"/>
    <path d="M20.063,7.77C19.727,8.185,17.233,9,13,9S6.273,8.185,5.937,7.77A.411.411,0,0,1,6,8H4c0,2.855,7.5,3,9,3s9-.145,9-3H20A.411.411,0,0,1,20.063,7.77Z"/>
    <path d="M20.045,10.821C19.758,11.219,17.626,12,14,12s-5.758-.781-6.045-1.179A.332.332,0,0,1,8,11H6c0,2.916,7.182,3,8,3s8-.084,8-3H20A.332.332,0,0,1,20.045,10.821Z"/>
    <path d="M18.037,13.845c-.228.334-1.842.988-4.537.988s-4.309-.654-4.537-.988A.3.3,0,0,1,9,14H7c0,1.958,3.265,2.833,6.5,2.833S20,15.958,20,14H18A.3.3,0,0,1,18.037,13.845Z"/>
    <path d="M12.5,17.833c-1.615,0-2.465-.641-2.5-.833H8c0,1.615,1.935,2.833,4.5,2.833S17,18.615,17,17l-2,0C14.965,17.192,14.115,17.833,12.5,17.833Z"/>
    <path d="M12.044,19.845a1.032,1.032,0,0,1-1.088,0A.258.258,0,0,1,11,20H9a2.267,2.267,0,0,0,2.5,2A2.267,2.267,0,0,0,14,20H12A.258.258,0,0,1,12.044,19.845Z"/>
  </g>
</svg>
