<svg xmlns="http://www.w3.org/2000/svg" width="24" height="24" viewBox="0 0 24 24">
  <path d="M21.4,11.7l-3-4a.5.5,0,0,0-.4-.2H14.5V5a.5.5,0,0,0-.5-.5H3a.5.5,0,0,0-.5.5V18a.5.5,0,0,0,.5.5H4.551a2.5,2.5,0,0,0,4.9,0h6.1a2.5,2.5,0,0,0,4.9,0H21a.5.5,0,0,0,.5-.5V12A.5.5,0,0,0,21.4,11.7ZM3.5,13.5H4a.5.5,0,0,1,0,1H3.5Zm0,2H4a1.5,1.5,0,0,0,0-3H3.5v-7h10v12H9.449a2.5,2.5,0,0,0-4.9,0H3.5Zm3.5,4A1.5,1.5,0,1,1,8.5,18,1.5,1.5,0,0,1,7,19.5Zm11,0A1.5,1.5,0,1,1,19.5,18,1.5,1.5,0,0,1,18,19.5Zm2.449-2a2.5,2.5,0,0,0-4.9,0H14.5v-9h3.25l2.75,3.667V12.5h-4V10a.5.5,0,0,0-1,0v3a.5.5,0,0,0,.5.5h4.5v4Z"/>
</svg>
