<svg xmlns="http://www.w3.org/2000/svg" width="24" height="24" viewBox="0 0 24 24">
  <g>
    <path d="M22,12A10,10,0,1,0,4.838,18.964l-.057.051.9.735c.233.19.476.368.725.536.019.013.04.024.06.037.229.152.463.295.7.427.111.062.226.115.339.172.153.077.3.154.461.223s.286.118.431.174.272.1.41.15c.153.052.307.1.464.144.142.04.285.076.429.111s.3.07.455.1c.173.032.348.056.523.08.128.017.253.038.382.05.311.029.623.047.936.047s.625-.018.936-.047c.129-.012.254-.033.382-.05.175-.024.35-.048.523-.08.153-.029.3-.064.455-.1s.287-.071.429-.111c.157-.045.311-.092.464-.144.138-.046.274-.1.41-.15s.29-.112.432-.175.307-.145.459-.221c.114-.058.229-.111.34-.173.239-.132.473-.275.7-.427.02-.013.041-.024.06-.037.249-.168.492-.346.725-.536l.9-.735-.057-.051A9.963,9.963,0,0,0,22,12ZM12,4a8,8,0,0,1,5.645,13.662A9.429,9.429,0,0,0,12,16a9.429,9.429,0,0,0-5.645,1.662A8,8,0,0,1,12,4Zm3.869,15a7.526,7.526,0,0,1-.8.388c-.052.022-.107.038-.159.058a7.862,7.862,0,0,1-.82.27l-.087.022a8.245,8.245,0,0,1-4.01,0l-.087-.022a7.862,7.862,0,0,1-.82-.27c-.052-.02-.107-.036-.159-.058a7.526,7.526,0,0,1-.8-.388c-.028-.016-.055-.035-.084-.051A7.833,7.833,0,0,1,12,18a7.833,7.833,0,0,1,3.953.946C15.924,18.962,15.9,18.981,15.869,19Z"/>
    <path d="M12,15a4.5,4.5,0,1,0-4.5-4.5A4.505,4.505,0,0,0,12,15Zm0-7a2.5,2.5,0,1,1-2.5,2.5A2.5,2.5,0,0,1,12,8Z"/>
  </g>
</svg>
