<svg xmlns="http://www.w3.org/2000/svg" width="24" height="24" viewBox="0 0 24 24">
  <g>
    <path d="M22,14V10H20v1H18.92A6.947,6.947,0,0,0,17.6,7.816l.766-.766.707.707,1.414-1.414L17.657,3.515,16.243,4.929l.707.707-.766.766A6.947,6.947,0,0,0,13,5.08V4h1V2H10V4h1V5.08A6.947,6.947,0,0,0,7.816,6.4L7.05,5.636l.707-.707L6.343,3.515,3.515,6.343,4.929,7.757l.707-.707.766.766A6.947,6.947,0,0,0,5.08,11H4V10H2v4H4V13H5.08A6.947,6.947,0,0,0,6.4,16.184l-.766.766-.707-.707L3.515,17.657l2.828,2.828,1.414-1.414-.707-.707.766-.766A6.947,6.947,0,0,0,11,18.92V20H10v2h4V20H13V18.92A6.947,6.947,0,0,0,16.184,17.6l.766.766-.707.707,1.414,1.414,2.828-2.828-1.414-1.414-.707.707-.766-.766A6.947,6.947,0,0,0,18.92,13H20v1ZM12,17a5,5,0,1,1,5-5A5.006,5.006,0,0,1,12,17Z"/>
    <rect x="9" y="12" width="2" height="2"/>
    <rect x="11" y="8" width="2" height="2"/>
    <rect x="13" y="13" width="2" height="2"/>
  </g>
</svg>
