<?xml version="1.0" encoding="utf-8"?>
<!-- Generator: Adobe Illustrator 24.1.3, SVG Export Plug-In . SVG Version: 6.00 Build 0)  -->
<svg version="1.1" id="Design_here" xmlns="http://www.w3.org/2000/svg" xmlns:xlink="http://www.w3.org/1999/xlink" x="0px"
	 y="0px" viewBox="0 0 24 24" style="enable-background:new 0 0 24 24;" xml:space="preserve">
<path d="M21.707,20.293l-3.067-3.067C20.084,15.943,21,14.079,21,12c0-3.86-3.141-7-7-7v2c2.757,0,5,2.243,5,5
	c0,1.528-0.704,2.881-1.787,3.799l-1.06-1.06C16.967,14.097,17.5,13.114,17.5,12c0-1.93-1.57-3.5-3.5-3.5v2
	c0.827,0,1.5,0.673,1.5,1.5c0,0.564-0.317,1.051-0.779,1.307L13,11.586V3h-2.48L7.806,6.392L3.707,2.293L2.293,3.707l4.256,4.256
	L6.52,8H3v9h3.586l4,4H13v-6.586l1,1V15.5c0.027,0,0.051-0.007,0.078-0.008l1.293,1.293C14.932,16.911,14.479,17,14,17v2
	c1.048,0,2.04-0.238,2.933-0.653l3.36,3.36L21.707,20.293z M11,5.601v3.985L9.229,7.815L11,5.601z M11,18.586L7.414,15H5v-5h2.48
	l0.491-0.614L11,12.414V18.586z"/>
</svg>
