<?xml version="1.0" encoding="utf-8"?>
<!-- Generator: Adobe Illustrator 24.1.3, SVG Export Plug-In . SVG Version: 6.00 Build 0)  -->
<svg version="1.1" id="Design_here" xmlns="http://www.w3.org/2000/svg" xmlns:xlink="http://www.w3.org/1999/xlink" x="0px"
	 y="0px" viewBox="0 0 24 24" style="enable-background:new 0 0 24 24;" xml:space="preserve">
<g>
	<path d="M6.52,8H3v9h3.586l4,4H13V3h-2.48L6.52,8z M11,18.586L7.414,15H5v-5h2.48L11,5.601V18.586z"/>
	<path d="M14,5v2c2.757,0,5,2.243,5,5s-2.243,5-5,5v2c3.86,0,7-3.14,7-7S17.86,5,14,5z"/>
	<path d="M17.5,12c0-1.93-1.57-3.5-3.5-3.5v2c0.827,0,1.5,0.673,1.5,1.5s-0.673,1.5-1.5,1.5v2C15.93,15.5,17.5,13.93,17.5,12z"/>
</g>
</svg>
