<svg xmlns="http://www.w3.org/2000/svg" width="24" height="24" viewBox="0 0 24 24">
  <g>
    <path d="M4.5,15.331l1-1.732A3.012,3.012,0,0,1,4,11,1.993,1.993,0,0,1,5.906,8.995l1.026.042.143-.864a4.993,4.993,0,0,1,9.654-.782l.192.563.587.1A2.993,2.993,0,0,1,18.5,13.6l1,1.732a4.993,4.993,0,0,0-1.082-9.116,6.994,6.994,0,0,0-13.141.85A4.007,4.007,0,0,0,2,11,5.018,5.018,0,0,0,4.5,15.331Z"/>
    <path d="M11,19h9V17H14.444A3.959,3.959,0,0,0,15,15a4,4,0,0,0-8,0H9a2,2,0,1,1,2,2H3v2h8Z"/>
    <rect x="8" y="20" width="13" height="2"/>
  </g>
</svg>
